<svg width="120" height="120" viewBox="0 0 120 120" fill="none" xmlns="http://www.w3.org/2000/svg">
<rect width="120" height="120" rx="18" fill="white"/>
<path d="M24.512 38.9837H37.2483L50.4519 80.4641H38.8841L36.3719 72.3433H25.33L22.8762 80.4641H11.25L24.512 38.9837ZM34.5608 64.7483L30.8802 50.1425L27.0242 64.7483H34.5608Z" fill="url(#paint0_linear_1219_101)"/>
<path d="M42.4848 80.554V39.0736H53.8773V64.3124L69.1842 39.0736H79.8172V80.554H68.4247V55.3152L53.2931 80.554H42.4848Z" fill="url(#paint1_linear_1219_101)"/>
<path d="M91.8805 80.8146C88.0246 80.8146 84.5582 80.0746 81.4812 78.5945C78.4432 77.0755 76.0284 74.9723 74.2368 72.2848L82.7665 66.9683C83.6624 68.3315 84.8503 69.4221 86.3304 70.24C87.8494 71.019 89.602 71.4085 91.5884 71.4085C93.6527 71.4085 95.0938 71.058 95.9117 70.3569C96.7297 69.6169 97.1386 68.7016 97.1386 67.611C97.1386 66.832 96.9634 66.1699 96.6128 65.6246C96.2623 65.0793 95.678 64.6509 94.8601 64.3393C94.0422 64.0277 92.9516 63.8719 91.5884 63.8719H85.8045V55.3422H91.5884C92.7179 55.3422 93.6138 55.2253 94.2759 54.9916C94.977 54.719 95.4638 54.349 95.7365 53.8816C96.0481 53.3752 96.2039 52.791 96.2039 52.1289C96.2039 51.4668 96.0481 50.902 95.7365 50.4346C95.4249 49.9283 94.8991 49.5388 94.159 49.2662C93.419 48.9935 92.4064 48.8572 91.121 48.8572C88.862 48.8572 86.973 49.2467 85.454 50.0257C83.974 50.8046 82.8444 51.7978 82.0655 53.0052L73.8862 47.1629C75.7947 44.6702 78.1317 42.6449 80.897 41.0869C83.6624 39.529 87.2262 38.75 91.5884 38.75C94.8991 38.75 97.7034 39.1784 100.001 40.0353C102.338 40.8922 104.13 42.1775 105.376 43.8912C106.623 45.605 107.246 47.7472 107.246 50.3178C107.246 52.0315 106.837 53.7063 106.019 55.3422C105.201 56.978 103.76 58.2633 101.696 59.1981C103.955 59.8992 105.688 61.1066 106.895 62.8203C108.103 64.4951 108.706 66.4815 108.706 68.7795C108.706 71.428 107.966 73.648 106.486 75.4397C105.006 77.2313 103 78.5751 100.469 79.4709C97.9371 80.3667 95.0743 80.8146 91.8805 80.8146Z" fill="url(#paint2_linear_1219_101)"/>
<defs>
<linearGradient id="paint0_linear_1219_101" x1="36.4" y1="45.566" x2="52.6027" y2="27.313" gradientUnits="userSpaceOnUse">
<stop stop-color="#F7526F"/>
<stop offset="1" stop-color="#FF3B3B"/>
</linearGradient>
<linearGradient id="paint1_linear_1219_101" x1="11.25" y1="42.4501" x2="19.5768" y2="30.9944" gradientUnits="userSpaceOnUse">
<stop stop-color="#FFA842"/>
<stop offset="1" stop-color="#FFC700"/>
</linearGradient>
<linearGradient id="paint2_linear_1219_101" x1="84.0179" y1="41.6215" x2="103.393" y2="85.2984" gradientUnits="userSpaceOnUse">
<stop stop-color="#62E278"/>
<stop offset="1" stop-color="#2CCC89"/>
</linearGradient>
</defs>
</svg>
