<svg width="121" height="120" viewBox="0 0 121 120" fill="none" xmlns="http://www.w3.org/2000/svg">
<g clip-path="url(#clip0_1557_576-759051)">
<rect x="0.5" width="120" height="120" rx="10" fill="black"/>
<g filter="url(#filter0_b_1557_576-600732)">
<rect x="0.5" width="120" height="120" fill="url(#paint0_linear_1557_576-208551)"/>
</g>
<path d="M37.83 75.6364L36.2638 69.6428H27.0751L25.5089 75.6364H16.4873L26.3233 45.5017H37.4333L47.2693 75.6364H37.83ZM31.5859 52.4559L28.6831 63.3987H34.6558L31.753 52.4559H31.5859ZM67.9354 75.6364V58.867H67.7684L56.7002 75.6364H48.2634V45.5017H57.1179V62.271H57.2849L68.3531 45.5017H76.79V75.6364H67.9354ZM87.3486 63.4823V57.0084H91.2538C93.6345 57.0084 95.1381 55.9016 95.1381 54.0848C95.1381 52.247 93.6345 51.1402 91.1493 51.1402C88.6433 51.1402 86.9518 52.5812 86.9518 54.6904H78.9535C78.9953 48.5716 83.8193 44.6664 91.3373 44.6664C98.6047 44.6664 103.366 47.9451 103.366 52.9362C103.366 56.4237 101.048 59.1176 97.6023 59.7233V59.8903C101.737 60.2871 104.41 63.1272 104.41 67.116C104.41 72.6918 99.0432 76.4717 91.1076 76.4717C83.6731 76.4717 78.682 72.5039 78.4105 66.3642H86.8474C86.8891 68.3898 88.5807 69.622 91.2955 69.622C93.718 69.622 95.326 68.3063 95.326 66.3642C95.326 64.5473 93.7806 63.4823 91.212 63.4823H87.3486Z" fill="white"/>
</g>
<defs>
<filter id="filter0_b_1557_576-600732" x="-0.181818" y="-0.681818" width="121.364" height="121.364" filterUnits="userSpaceOnUse" color-interpolation-filters="sRGB">
<feFlood flood-opacity="0" result="BackgroundImageFix"/>
<feGaussianBlur in="BackgroundImageFix" stdDeviation="0.340909"/>
<feComposite in2="SourceAlpha" operator="in" result="effect1_backgroundBlur_1557_576"/>
<feBlend mode="normal" in="SourceGraphic" in2="effect1_backgroundBlur_1557_576" result="shape"/>
</filter>
<linearGradient id="paint0_linear_1557_576-208551" x1="60.5" y1="0" x2="60.5" y2="120" gradientUnits="userSpaceOnUse">
<stop stop-color="#94FFCB"/>
<stop offset="1" stop-color="#48D79B"/>
</linearGradient>
<clipPath id="clip0_1557_576-759051">
<rect x="0.5" width="120" height="120" rx="10" fill="white"/>
</clipPath>
</defs>
</svg>