<svg width="82" height="27" viewBox="0 0 82 27" fill="none" xmlns="http://www.w3.org/2000/svg">
<g clip-path="url(#clip0_525_105)">
<path fill-rule="evenodd" clip-rule="evenodd" d="M13.4525 0.694394C13.6726 0.967692 13.7849 1.33647 14.0094 2.07404L18.9143 18.1868C17.1008 17.246 15.1294 16.5675 13.0503 16.2014L9.85664 5.4093C9.80439 5.23271 9.64218 5.11157 9.45804 5.11157C9.27342 5.11157 9.11094 5.23335 9.05908 5.41054L5.90416 16.196C3.81537 16.5604 1.83493 17.2402 0.0136719 18.1843L4.94267 2.07031C5.16788 1.33401 5.2805 0.965862 5.50067 0.693068C5.69501 0.452236 5.94783 0.2652 6.23498 0.149781C6.56025 0.019043 6.94523 0.019043 7.71521 0.019043H11.2357C12.0067 0.019043 12.3922 0.019043 12.7178 0.150054C13.0052 0.265712 13.2581 0.453127 13.4525 0.694394Z" fill="black"/>
<path fill-rule="evenodd" clip-rule="evenodd" d="M14.0399 18.9535C13.2313 19.6449 11.6174 20.1165 9.75837 20.1165C7.47666 20.1165 5.56425 19.4061 5.05678 18.4508C4.87536 18.9983 4.83468 19.6249 4.83468 20.0252C4.83468 20.0252 4.71514 21.9908 6.08224 23.3579C6.08224 22.648 6.65772 22.0726 7.36758 22.0726C8.5843 22.0726 8.58294 23.1341 8.58182 23.9953C8.58179 24.0211 8.58176 24.0468 8.58176 24.0722C8.58176 25.3794 9.38068 26.4999 10.5169 26.9722C10.3471 26.6232 10.252 26.2312 10.252 25.817C10.252 24.5703 10.9839 24.1061 11.8345 23.5666C12.5113 23.1374 13.2634 22.6605 13.7816 21.7037C14.052 21.2046 14.2056 20.6328 14.2056 20.0252C14.2056 19.6516 14.1475 19.2915 14.0399 18.9535Z" fill="#FF5D01"/>
<path d="M30.1752 17.9345C32.2268 17.9345 33.7656 17.2046 34.3968 15.9618C34.3968 16.5536 34.436 17.1652 34.5348 17.6386H37.908C37.7503 16.9481 37.6715 16.0012 37.6715 14.7585V11.7205C37.6715 8.84039 35.9748 7.47925 32.2072 7.47925C28.9126 7.47925 26.7032 8.84039 26.4468 11.0696H29.9582C30.0765 10.1029 30.8853 9.5703 32.2072 9.5703C33.5089 9.5703 34.2388 10.1029 34.2388 11.2077V11.5035L30.6684 11.8192C28.9324 11.9967 27.946 12.2926 27.2556 12.7661C26.5257 13.2592 26.1509 14.0089 26.1509 14.936C26.1509 16.7903 27.6896 17.9345 30.1752 17.9345ZM31.4772 15.8829C30.3329 15.8829 29.6425 15.4292 29.6425 14.6993C29.6425 13.9497 30.2145 13.5551 31.6548 13.3776L34.298 13.1014V13.6932C34.298 15.0149 33.154 15.8829 31.4772 15.8829Z" fill="black"/>
<path d="M45.0236 17.9345C48.4563 17.9345 50.2119 16.6523 50.2119 14.5809C50.2119 12.8647 49.2255 11.9178 46.8387 11.6022L43.8597 11.2668C43.0116 11.1484 42.6565 10.9314 42.6565 10.458C42.6565 9.88593 43.2285 9.62946 44.5304 9.62946C46.3256 9.62946 47.5684 10.0437 48.5747 10.8526L50.1724 9.25466C49.0676 8.11052 47.1543 7.47925 44.7872 7.47925C41.4532 7.47925 39.5989 8.66284 39.5989 10.6553C39.5989 12.3912 40.7429 13.3578 43.1101 13.6735L45.7932 13.9891C46.8584 14.1272 47.174 14.3245 47.174 14.8374C47.174 15.4292 46.582 15.7448 45.2012 15.7448C43.1496 15.7448 41.7688 15.1925 40.8417 14.1667L39.0269 15.6659C40.2301 17.1652 42.2817 17.9345 45.0236 17.9345Z" fill="black"/>
<path d="M52.9971 10.0044V14.1668C52.9971 16.6129 54.3779 17.8558 57.3371 17.8558C58.2446 17.8558 58.9546 17.7571 59.6254 17.5598V14.9953C59.2702 15.0742 58.8363 15.1531 58.2642 15.1531C57.0215 15.1531 56.4099 14.6008 56.4099 13.4369V10.0044H59.645V7.77528H56.4099V4.16528L52.9971 5.42779V7.77528H50.7876V10.0044H52.9971Z" fill="black"/>
<path d="M64.5445 7.77524H61.4277V17.6387H64.8405V13.9498C64.8405 12.8845 65.0773 11.9179 65.7284 11.3063C66.2412 10.8329 66.9712 10.5765 67.9968 10.5765C68.3716 10.5765 68.6676 10.6159 69.0028 10.6554V7.55824C68.786 7.5188 68.628 7.5188 68.352 7.5188C66.3989 7.5188 65.0773 8.64323 64.5445 10.4779V7.77524Z" fill="black"/>
<path d="M75.7457 17.9345C79.3559 17.9345 81.9007 16.021 81.9007 12.6872C81.9007 9.37302 79.3559 7.47925 75.7457 7.47925C72.1161 7.47925 69.5713 9.37302 69.5713 12.6872C69.5713 16.021 72.1161 17.9345 75.7457 17.9345ZM75.7457 15.6659C74.0888 15.6659 73.0432 14.6007 73.0432 12.6872C73.0432 10.7736 74.0888 9.74782 75.7457 9.74782C77.3832 9.74782 78.4287 10.7736 78.4287 12.6872C78.4287 14.6007 77.3832 15.6659 75.7457 15.6659Z" fill="black"/>
</g>
<defs>
<clipPath id="clip0_525_105">
<rect width="81.906" height="27" fill="white"/>
</clipPath>
</defs>
</svg>
