<svg width="260" height="220" viewBox="0 0 260 220" fill="none" xmlns="http://www.w3.org/2000/svg">
<path d="M160.803 175.906H99.0488V219.999H160.803V175.906Z" fill="#DBDBDB"/>
<path d="M164.517 214.431H95.334V220H164.517V214.431Z" fill="#EBEBEB"/>
<path d="M250.642 180.78H9.35838C4.19826 180.78 0 176.569 0 171.392V142.257H260V171.392C260 176.569 255.802 180.78 250.642 180.78Z" fill="#E6E6E6"/>
<path d="M260 154.557H0V6.44303C0 2.89041 2.88363 0 6.42792 0H253.572C257.116 0 260 2.89041 260 6.44303V154.557Z" fill="#3F3D56"/>
<path d="M254.444 6.73047H6.03613V146.435H254.444V6.73047Z" fill="#B7C9F8"/>
<rect x="17.0957" y="19.8389" width="83.5167" height="57.3176" rx="2.63567" fill="white"/>
<path d="M25.3039 28.8079C25.1509 28.8079 25.004 28.8687 24.8958 28.9769C24.7876 29.0852 24.7267 29.232 24.7267 29.3851C24.7267 29.5382 24.7876 29.685 24.8958 29.7932C25.004 29.9015 25.1509 29.9623 25.3039 29.9623H33.3846C33.5377 29.9623 33.6845 29.9015 33.7928 29.7932C33.901 29.685 33.9618 29.5382 33.9618 29.3851C33.9618 29.232 33.901 29.0852 33.7928 28.9769C33.6845 28.8687 33.5377 28.8079 33.3846 28.8079H25.3039ZM25.3039 31.1167C25.1509 31.1167 25.004 31.1775 24.8958 31.2857C24.7876 31.394 24.7267 31.5408 24.7267 31.6938V34.0026C24.7267 34.1557 24.7876 34.3025 24.8958 34.4108C25.004 34.519 25.1509 34.5798 25.3039 34.5798H27.6127C27.7658 34.5798 27.9126 34.519 28.0208 34.4108C28.1291 34.3025 28.1899 34.1557 28.1899 34.0026V31.6938C28.1899 31.5408 28.1291 31.394 28.0208 31.2857C27.9126 31.1775 27.7658 31.1167 27.6127 31.1167H25.3039ZM25.8811 33.4254V32.271H27.0355V33.4254H25.8811ZM29.9215 31.1167C29.7684 31.1167 29.6216 31.1775 29.5133 31.2857C29.4051 31.394 29.3443 31.5408 29.3443 31.6938C29.3443 31.8469 29.4051 31.9937 29.5133 32.102C29.6216 32.2102 29.7684 32.271 29.9215 32.271H33.3846C33.5377 32.271 33.6845 32.2102 33.7928 32.102C33.901 31.9937 33.9618 31.8469 33.9618 31.6938C33.9618 31.5408 33.901 31.394 33.7928 31.2857C33.6845 31.1775 33.5377 31.1167 33.3846 31.1167H29.9215ZM29.9215 33.4254C29.7684 33.4254 29.6216 33.4862 29.5133 33.5945C29.4051 33.7027 29.3443 33.8495 29.3443 34.0026C29.3443 34.1557 29.4051 34.3025 29.5133 34.4108C29.6216 34.519 29.7684 34.5798 29.9215 34.5798H33.3846C33.5377 34.5798 33.6845 34.519 33.7928 34.4108C33.901 34.3025 33.9618 34.1557 33.9618 34.0026C33.9618 33.8495 33.901 33.7027 33.7928 33.5945C33.6845 33.4862 33.5377 33.4254 33.3846 33.4254H29.9215ZM22.418 27.6535C22.418 27.0412 22.6612 26.4539 23.0942 26.021C23.5272 25.588 24.1144 25.3447 24.7267 25.3447H33.9618C34.5742 25.3447 35.1614 25.588 35.5944 26.021C36.0274 26.4539 36.2706 27.0412 36.2706 27.6535C36.8829 27.6535 37.4702 27.8967 37.9032 28.3297C38.3361 28.7627 38.5794 29.3499 38.5794 29.9623V35.157C38.5794 35.9224 38.2753 36.6565 37.7341 37.1977C37.1929 37.7389 36.4588 38.043 35.6934 38.043H25.3039C24.5385 38.043 23.8045 37.7389 23.2632 37.1977C22.722 36.6565 22.418 35.9224 22.418 35.157V27.6535ZM35.6934 35.157C35.5403 35.157 35.3935 35.0962 35.2853 34.988C35.177 34.8797 35.1162 34.7329 35.1162 34.5798V27.6535C35.1162 27.3473 34.9946 27.0537 34.7781 26.8372C34.5616 26.6207 34.268 26.4991 33.9618 26.4991H24.7267C24.4206 26.4991 24.127 26.6207 23.9105 26.8372C23.694 27.0537 23.5724 27.3473 23.5724 27.6535V35.157C23.5724 35.6163 23.7548 36.0567 24.0795 36.3814C24.4043 36.7062 24.8447 36.8886 25.3039 36.8886H35.6934C36.1527 36.8886 36.5931 36.7062 36.9178 36.3814C37.2426 36.0567 37.425 35.6163 37.425 35.157V29.9623C37.425 29.6561 37.3034 29.3625 37.0869 29.146C36.8704 28.9295 36.5768 28.8079 36.2706 28.8079V34.5798C36.2706 34.7329 36.2098 34.8797 36.1015 34.988C35.9933 35.0962 35.8465 35.157 35.6934 35.157Z" fill="#081024"/>
<path d="M49.4445 27.1141V36.1938H46.9508V32.6387H43.9072V36.1938H41.4135V27.1141H43.9072V30.4647H46.9508V27.1141H49.4445ZM54.0383 36.3217C53.4415 36.3217 52.9129 36.2279 52.4525 36.0404C51.9921 35.8528 51.6042 35.5971 51.2888 35.2731C50.9818 34.9406 50.7474 34.5655 50.5854 34.1477C50.4319 33.73 50.3552 33.2909 50.3552 32.8305C50.3552 32.3701 50.4319 31.9311 50.5854 31.5133C50.7474 31.087 50.9818 30.7119 51.2888 30.3879C51.6042 30.064 51.9921 29.8082 52.4525 29.6206C52.9129 29.4331 53.4415 29.3393 54.0383 29.3393C54.6436 29.3393 55.1722 29.4331 55.624 29.6206C56.0844 29.8082 56.468 30.064 56.775 30.3879C57.0904 30.7119 57.3249 31.087 57.4783 31.5133C57.6403 31.9311 57.7213 32.3701 57.7213 32.8305C57.7213 33.2909 57.6403 33.73 57.4783 34.1477C57.3249 34.5655 57.0904 34.9406 56.775 35.2731C56.468 35.5971 56.0844 35.8528 55.624 36.0404C55.1722 36.2279 54.6436 36.3217 54.0383 36.3217ZM52.8489 32.8305C52.8489 33.1289 52.9001 33.3889 53.0024 33.6106C53.1047 33.8237 53.2454 33.99 53.4244 34.1093C53.6035 34.2202 53.8081 34.2756 54.0383 34.2756C54.2684 34.2756 54.4731 34.2202 54.6521 34.1093C54.8311 33.99 54.9718 33.8237 55.0741 33.6106C55.1764 33.3889 55.2276 33.1289 55.2276 32.8305C55.2276 32.5321 55.1764 32.2764 55.0741 32.0632C54.9718 31.8416 54.8311 31.6753 54.6521 31.5645C54.4731 31.4451 54.2684 31.3854 54.0383 31.3854C53.8081 31.3854 53.6035 31.4451 53.4244 31.5645C53.2454 31.6753 53.1047 31.8416 53.0024 32.0632C52.9001 32.2764 52.8489 32.5321 52.8489 32.8305ZM58.607 36.1938V29.4672H62.6737C63.2108 29.4672 63.6371 29.5439 63.9525 29.6974C64.268 29.8423 64.4939 30.0384 64.6303 30.2856C64.7752 30.5244 64.8477 30.7886 64.8477 31.0785C64.8477 31.4707 64.7624 31.8032 64.5919 32.076C64.4299 32.3488 64.1656 32.5662 63.799 32.7282C64.1912 32.839 64.5152 33.0181 64.771 33.2653C65.0267 33.5126 65.1546 33.8706 65.1546 34.3395C65.1546 34.8084 65.0438 35.1793 64.8221 35.4521C64.609 35.7249 64.2935 35.9168 63.8758 36.0276C63.458 36.1384 62.9508 36.1938 62.354 36.1938H58.607ZM60.9089 34.5825H62.2772C62.3795 34.5825 62.4691 34.5612 62.5458 34.5186C62.631 34.4759 62.695 34.4163 62.7376 34.3395C62.7888 34.2628 62.8143 34.169 62.8143 34.0582C62.8143 33.9474 62.7888 33.8536 62.7376 33.7769C62.695 33.7001 62.631 33.6404 62.5458 33.5978C62.4691 33.5552 62.3795 33.5339 62.2772 33.5339H60.9089V34.5825ZM60.9089 32.0632H62.0726C62.1749 32.0632 62.2644 32.0419 62.3412 31.9993C62.4179 31.9566 62.4733 31.897 62.5074 31.8202C62.5501 31.7435 62.5714 31.654 62.5714 31.5517C62.5714 31.4067 62.5245 31.2917 62.4307 31.2064C62.3454 31.1211 62.2261 31.0785 62.0726 31.0785H60.9089V32.0632ZM69.4742 36.3217C68.8774 36.3217 68.3488 36.2279 67.8884 36.0404C67.428 35.8528 67.0401 35.5971 66.7247 35.2731C66.4178 34.9406 66.1833 34.5655 66.0213 34.1477C65.8679 33.73 65.7911 33.2909 65.7911 32.8305C65.7911 32.3701 65.8679 31.9311 66.0213 31.5133C66.1833 31.087 66.4178 30.7119 66.7247 30.3879C67.0401 30.064 67.428 29.8082 67.8884 29.6206C68.3488 29.4331 68.8774 29.3393 69.4742 29.3393C70.0795 29.3393 70.6081 29.4331 71.0599 29.6206C71.5203 29.8082 71.904 30.064 72.2109 30.3879C72.5263 30.7119 72.7608 31.087 72.9142 31.5133C73.0762 31.9311 73.1572 32.3701 73.1572 32.8305C73.1572 33.2909 73.0762 33.73 72.9142 34.1477C72.7608 34.5655 72.5263 34.9406 72.2109 35.2731C71.904 35.5971 71.5203 35.8528 71.0599 36.0404C70.6081 36.2279 70.0795 36.3217 69.4742 36.3217ZM68.2849 32.8305C68.2849 33.1289 68.336 33.3889 68.4383 33.6106C68.5406 33.8237 68.6813 33.99 68.8603 34.1093C69.0394 34.2202 69.244 34.2756 69.4742 34.2756C69.7044 34.2756 69.909 34.2202 70.088 34.1093C70.267 33.99 70.4077 33.8237 70.51 33.6106C70.6123 33.3889 70.6635 33.1289 70.6635 32.8305C70.6635 32.5321 70.6123 32.2764 70.51 32.0632C70.4077 31.8416 70.267 31.6753 70.088 31.5645C69.909 31.4451 69.7044 31.3854 69.4742 31.3854C69.244 31.3854 69.0394 31.4451 68.8603 31.5645C68.6813 31.6753 68.5406 31.8416 68.4383 32.0632C68.336 32.2764 68.2849 32.5321 68.2849 32.8305ZM77.3423 36.3217C76.7455 36.3217 76.2169 36.2279 75.7565 36.0404C75.3047 35.8528 74.921 35.5971 74.6056 35.2731C74.2901 34.9406 74.0514 34.5655 73.8894 34.1477C73.7275 33.73 73.6465 33.2909 73.6465 32.8305C73.6465 32.2167 73.7871 31.6455 74.0685 31.1169C74.3583 30.5798 74.7761 30.1492 75.3217 29.8253C75.8759 29.5013 76.5494 29.3393 77.3423 29.3393C78.1522 29.3393 78.8343 29.5098 79.3884 29.8508C79.9426 30.1919 80.3561 30.6309 80.6289 31.168L78.263 31.8842C78.1522 31.7222 78.0158 31.5986 77.8538 31.5133C77.7004 31.4281 77.5256 31.3854 77.3295 31.3854C77.1078 31.3854 76.9075 31.4451 76.7284 31.5645C76.5494 31.6753 76.4045 31.8373 76.2936 32.0504C76.1913 32.2636 76.1402 32.5236 76.1402 32.8305C76.1402 33.1289 76.1913 33.3889 76.2936 33.6106C76.4045 33.8237 76.5494 33.99 76.7284 34.1093C76.9075 34.2202 77.1078 34.2756 77.3295 34.2756C77.4659 34.2756 77.5895 34.2585 77.7004 34.2244C77.8112 34.1818 77.9135 34.1221 78.0073 34.0454C78.1096 33.9687 78.1948 33.8792 78.263 33.7769L80.6289 34.493C80.4499 34.8511 80.2026 35.1665 79.8872 35.4393C79.5802 35.7122 79.2136 35.9296 78.7874 36.0915C78.3696 36.245 77.8879 36.3217 77.3423 36.3217ZM82.8687 36.1938V31.5773H80.9505V29.4672H87.2168V31.5773H85.2985V36.1938H82.8687ZM87.9927 36.1938V29.4672H90.4225V32.9584L92.5453 29.4672H94.7577V36.1938H92.3279V32.8177L90.2178 36.1938H87.9927Z" fill="#081024"/>
<rect x="22.418" y="43.0649" width="34.6454" height="29.6131" rx="1.9355" fill="#EBEBEB"/>
<rect x="60.6445" y="43.0649" width="34.6454" height="7.35489" rx="1.9355" fill="#EBEBEB"/>
<rect x="60.6445" y="53.9028" width="34.6454" height="18.7743" rx="1.9355" fill="#EBEBEB"/>
<line x1="24.2568" y1="51.049" x2="39.7408" y2="51.049" stroke="#C5C5C5" stroke-width="0.677424"/>
<rect x="62.4834" y="57.3877" width="30.968" height="11.8065" rx="2.63567" fill="#D9D9D9"/>
<path d="M72.4158 65.7109V61.3175H73.6224V65.7109H72.4158ZM77.7026 65.7109V63.3967L76.9663 65.0241H76.3227L75.5863 63.3967V65.7109H74.3797V61.3175H75.6977L76.6445 63.3843L77.5974 61.3175H78.9093V65.7109H77.7026ZM81.5609 65.7419C81.2762 65.7419 81.004 65.6924 80.7441 65.5934C80.4883 65.4902 80.2614 65.3417 80.0634 65.1478C79.8654 64.9498 79.7086 64.7126 79.5931 64.4362C79.4817 64.1557 79.426 63.836 79.426 63.4771C79.426 63.1677 79.4838 62.881 79.5993 62.617C79.7148 62.353 79.8736 62.122 80.0758 61.9239C80.282 61.7218 80.5213 61.565 80.7936 61.4537C81.0658 61.3423 81.3608 61.2866 81.6784 61.2866C82.0745 61.2866 82.4334 61.3732 82.7551 61.5465C83.0769 61.7156 83.3162 61.9487 83.4729 62.2457L82.5757 62.9326C82.489 62.7593 82.3591 62.6211 82.1858 62.518C82.0126 62.4107 81.829 62.3571 81.6351 62.3571C81.4907 62.3571 81.3587 62.386 81.2391 62.4437C81.1195 62.5015 81.0143 62.5819 80.9235 62.6851C80.8369 62.7882 80.7688 62.9119 80.7193 63.0563C80.6739 63.1966 80.6512 63.3513 80.6512 63.5204C80.6512 63.6937 80.676 63.8504 80.7255 63.9907C80.775 64.131 80.8431 64.2527 80.9297 64.3558C81.0205 64.4548 81.1277 64.5332 81.2515 64.5909C81.3752 64.6446 81.5134 64.6714 81.6661 64.6714C81.8599 64.6714 82.0456 64.6239 82.223 64.529C82.4004 64.43 82.5612 64.2918 82.7056 64.1145V65.2902C82.3756 65.5913 81.994 65.7419 81.5609 65.7419ZM82.6437 64.2382H81.8331V63.3719H83.64V65.7109H82.6437V64.2382Z" fill="#6B6B6B"/>
<line x1="24.2568" y1="48.6295" x2="36.3537" y2="48.6296" stroke="#C5C5C5" stroke-width="0.677424"/>
<line x1="24.2568" y1="46.2101" x2="36.3537" y2="46.2101" stroke="#C5C5C5" stroke-width="0.677424"/>
<line x1="24.2568" y1="53.4684" x2="48.4506" y2="53.4684" stroke="#C5C5C5" stroke-width="0.677424"/>
<line x1="24.2568" y1="55.8874" x2="55.2248" y2="55.8874" stroke="#C5C5C5" stroke-width="0.677424"/>
<line x1="24.2568" y1="58.3068" x2="55.2248" y2="58.3068" stroke="#C5C5C5" stroke-width="0.677424"/>
<line x1="24.2568" y1="60.7262" x2="55.2248" y2="60.7262" stroke="#C5C5C5" stroke-width="0.677424"/>
<line x1="24.2568" y1="63.1462" x2="55.2248" y2="63.1462" stroke="#C5C5C5" stroke-width="0.677424"/>
<line x1="24.2568" y1="65.5656" x2="55.2248" y2="65.5656" stroke="#C5C5C5" stroke-width="0.677424"/>
<line x1="24.2568" y1="67.9845" x2="55.2248" y2="67.9845" stroke="#C5C5C5" stroke-width="0.677424"/>
<line x1="24.2568" y1="70.404" x2="55.2248" y2="70.404" stroke="#C5C5C5" stroke-width="0.677424"/>
<rect x="106.782" y="19.8394" width="64.5738" height="57.3176" rx="2.63567" fill="white"/>
<rect x="112.104" y="27.5039" width="10.2276" height="10.2276" rx="2.55689" fill="white"/>
<path d="M119.994 25.6577H116.288C112.906 25.6577 112.104 26.4594 112.104 29.8412V33.5471C112.104 36.9289 112.906 37.7306 116.288 37.7306H119.994C123.376 37.7306 124.177 36.9289 124.177 33.5471V29.8412C124.177 26.4594 123.368 25.6577 119.994 25.6577ZM121.851 34.2699H120.974C120.642 34.2699 120.54 34.0066 119.943 33.4014C119.424 32.8986 119.194 32.8318 119.067 32.8318C118.886 32.8318 118.835 32.8827 118.835 33.1306V33.9225C118.835 34.1349 118.768 34.2624 118.206 34.2624C117.276 34.2624 116.245 33.7002 115.521 32.653C114.431 31.1182 114.132 29.9687 114.132 29.731C114.132 29.6031 114.183 29.4836 114.429 29.4836H115.307C115.529 29.4836 115.614 29.5858 115.7 29.8235C116.134 31.0771 116.858 32.1753 117.156 32.1753C117.266 32.1753 117.317 32.1244 117.317 31.8433V30.5486C117.284 29.9514 116.969 29.9001 116.969 29.688C116.969 29.5858 117.054 29.4836 117.189 29.4836H118.57C118.757 29.4836 118.826 29.5858 118.826 29.8057V31.5525C118.826 31.7411 118.91 31.8079 118.961 31.8079C119.071 31.8079 119.166 31.7411 119.37 31.5366C120.001 30.8293 120.453 29.7386 120.453 29.7386C120.511 29.6107 120.614 29.4911 120.836 29.4911H121.714C121.978 29.4911 122.036 29.6265 121.978 29.8152C121.867 30.326 120.793 31.843 120.793 31.843C120.7 31.9961 120.665 32.0629 120.793 32.2338C120.887 32.3617 121.194 32.6269 121.398 32.8646C121.773 33.2909 122.062 33.6486 122.139 33.896C122.225 34.1416 122.097 34.2695 121.85 34.2695L121.851 34.2699Z" fill="#0077FF"/>
<path d="M132.667 36.1943V29.2886H130.902L130.851 30.5163C130.8 31.6758 130.689 32.6307 130.518 33.3809C130.356 34.1226 130.113 34.7066 129.789 35.1329C129.465 35.5507 129.048 35.8491 128.536 36.0281C128.033 36.1986 127.423 36.2839 126.707 36.2839V34.1354C126.997 34.1354 127.244 34.0843 127.449 33.982C127.662 33.8711 127.837 33.6665 127.973 33.3681C128.118 33.0612 128.229 32.6221 128.306 32.0509C128.391 31.4712 128.451 30.7124 128.485 29.7746L128.587 27.1146H135.16V36.1943H132.667ZM139.867 36.3222C139.279 36.3222 138.755 36.2327 138.294 36.0537C137.834 35.8661 137.446 35.6146 137.131 35.2992C136.824 34.9837 136.589 34.6214 136.427 34.2121C136.265 33.8029 136.184 33.3724 136.184 32.9205C136.184 32.2726 136.325 31.6801 136.606 31.1429C136.888 30.5973 137.301 30.1625 137.847 29.8385C138.392 29.506 139.066 29.3398 139.867 29.3398C140.669 29.3398 141.342 29.5018 141.888 29.8257C142.434 30.1497 142.847 30.576 143.128 31.1046C143.41 31.6332 143.55 32.2086 143.55 32.831C143.55 32.9589 143.542 33.091 143.525 33.2274C143.516 33.3553 143.503 33.4704 143.486 33.5727H138.768C138.785 33.8114 138.849 34.0075 138.959 34.161C139.079 34.3059 139.224 34.4125 139.394 34.4807C139.573 34.5489 139.756 34.583 139.944 34.583C140.208 34.583 140.456 34.5233 140.686 34.404C140.925 34.2846 141.082 34.1184 141.159 33.9052L143.218 34.4935C143.039 34.8516 142.787 35.167 142.463 35.4398C142.148 35.7126 141.773 35.93 141.338 36.092C140.903 36.2455 140.413 36.3222 139.867 36.3222ZM138.716 32.1149H140.942C140.916 31.8932 140.852 31.7056 140.75 31.5522C140.656 31.3987 140.528 31.2794 140.366 31.1941C140.213 31.1088 140.034 31.0662 139.829 31.0662C139.624 31.0662 139.441 31.1088 139.279 31.1941C139.126 31.2794 138.998 31.3987 138.895 31.5522C138.802 31.7056 138.742 31.8932 138.716 32.1149ZM144.374 36.1943V29.4677H146.803V31.7568H148.594V29.4677H151.024V36.1943H148.594V33.739H146.803V36.1943H144.374ZM153.749 36.1943V31.5777H151.831V29.4677H158.097V31.5777H156.179V36.1943H153.749ZM158.426 34.161C158.426 33.7091 158.55 33.3127 158.797 32.9717C159.045 32.6221 159.386 32.3493 159.82 32.1532C160.264 31.9571 160.767 31.8591 161.329 31.8591C161.594 31.8591 161.841 31.8804 162.071 31.923C162.31 31.9657 162.514 32.0296 162.685 32.1149V31.9102C162.685 31.5948 162.591 31.3603 162.404 31.2069C162.225 31.0534 161.93 30.9767 161.521 30.9767C161.146 30.9767 160.792 31.0406 160.46 31.1685C160.136 31.2879 159.795 31.4669 159.437 31.7056L158.733 30.1966C159.185 29.9067 159.658 29.6936 160.153 29.5572C160.656 29.4123 161.193 29.3398 161.764 29.3398C162.83 29.3398 163.653 29.5828 164.232 30.0687C164.821 30.5462 165.115 31.258 165.115 32.2044V33.5088C165.115 33.739 165.149 33.901 165.217 33.9947C165.285 34.08 165.405 34.1312 165.575 34.1482V36.1943C165.379 36.237 165.192 36.2668 165.012 36.2839C164.842 36.3094 164.689 36.3222 164.552 36.3222C164.117 36.3222 163.785 36.2455 163.555 36.092C163.333 35.93 163.188 35.6956 163.12 35.3887L163.069 35.1457C162.77 35.5293 162.425 35.8235 162.033 36.0281C161.641 36.2242 161.223 36.3222 160.78 36.3222C160.336 36.3222 159.936 36.2284 159.577 36.0409C159.219 35.8533 158.938 35.5975 158.733 35.2736C158.529 34.9411 158.426 34.5702 158.426 34.161ZM162.365 34.3272C162.459 34.259 162.536 34.1866 162.595 34.1098C162.655 34.0246 162.685 33.9393 162.685 33.8541V33.3553C162.549 33.3042 162.391 33.2615 162.212 33.2274C162.041 33.1933 161.888 33.1763 161.751 33.1763C161.462 33.1763 161.214 33.2488 161.01 33.3937C160.814 33.5386 160.716 33.7219 160.716 33.9436C160.716 34.0629 160.75 34.1738 160.818 34.2761C160.886 34.3699 160.98 34.4466 161.099 34.5063C161.219 34.5574 161.355 34.583 161.508 34.583C161.653 34.583 161.803 34.5617 161.956 34.5191C162.118 34.4679 162.254 34.404 162.365 34.3272Z" fill="#081024"/>
<rect x="112.154" y="43.0654" width="53.504" height="7.37986" rx="1.9355" fill="#EBEBEB"/>
<rect x="112.104" y="54.0806" width="53.504" height="18.7132" rx="1.9355" fill="#EBEBEB"/>
<line x1="134.821" y1="57.9562" x2="160.914" y2="57.9562" stroke="#D9D9D9" stroke-width="0.7907"/>
<line x1="134.821" y1="60.3288" x2="160.914" y2="60.3288" stroke="#D9D9D9" stroke-width="0.7907"/>
<line x1="134.821" y1="62.4372" x2="160.914" y2="62.4372" stroke="#D9D9D9" stroke-width="0.7907"/>
<line x1="134.821" y1="64.5465" x2="160.914" y2="64.5465" stroke="#D9D9D9" stroke-width="0.7907"/>
<line x1="134.821" y1="66.6545" x2="160.914" y2="66.6545" stroke="#D9D9D9" stroke-width="0.7907"/>
<line x1="134.821" y1="68.7629" x2="160.914" y2="68.7629" stroke="#D9D9D9" stroke-width="0.7907"/>
<rect x="115.054" y="57.562" width="17.1318" height="11.5969" rx="2.63567" fill="#D9D9D9"/>
<path d="M118.043 65.6699V61.2765H119.249V65.6699H118.043ZM123.33 65.6699V63.3556L122.593 64.9831H121.95L121.213 63.3556V65.6699H120.007V61.2765H121.325L122.271 63.3433L123.224 61.2765H124.536V65.6699H123.33ZM127.188 65.7009C126.903 65.7009 126.631 65.6514 126.371 65.5524C126.115 65.4492 125.888 65.3007 125.69 65.1068C125.492 64.9088 125.336 64.6716 125.22 64.3952C125.109 64.1147 125.053 63.795 125.053 63.4361C125.053 63.1267 125.111 62.84 125.226 62.576C125.342 62.312 125.501 62.0809 125.703 61.8829C125.909 61.6808 126.148 61.524 126.421 61.4126C126.693 61.3013 126.988 61.2456 127.305 61.2456C127.701 61.2456 128.06 61.3322 128.382 61.5055C128.704 61.6746 128.943 61.9077 129.1 62.2047L128.203 62.8916C128.116 62.7183 127.986 62.5801 127.813 62.477C127.64 62.3697 127.456 62.3161 127.262 62.3161C127.118 62.3161 126.986 62.345 126.866 62.4027C126.746 62.4605 126.641 62.5409 126.55 62.644C126.464 62.7472 126.396 62.8709 126.346 63.0153C126.301 63.1556 126.278 63.3103 126.278 63.4794C126.278 63.6527 126.303 63.8094 126.352 63.9497C126.402 64.0899 126.47 64.2116 126.557 64.3148C126.647 64.4138 126.755 64.4922 126.878 64.5499C127.002 64.6035 127.14 64.6304 127.293 64.6304C127.487 64.6304 127.673 64.5829 127.85 64.488C128.027 64.389 128.188 64.2508 128.333 64.0734V65.2491C128.003 65.5503 127.621 65.7009 127.188 65.7009ZM128.271 64.1972H127.46V63.3309H129.267V65.6699H128.271V64.1972Z" fill="#6B6B6B"/>
<rect x="177.526" y="19.8394" width="67.2095" height="57.3176" rx="2.63567" fill="white"/>
<rect width="11.8717" height="11.8717" rx="2.59693" transform="matrix(-1 0 0 1 194.9 25.6338)" fill="#C61FCA"/>
<path fill-rule="evenodd" clip-rule="evenodd" d="M190.646 27.5133C190.211 27.4932 190.073 27.4888 188.964 27.4888C187.856 27.4888 187.717 27.4936 187.282 27.5133C186.847 27.5329 186.55 27.6023 186.291 27.7028C186.019 27.8056 185.772 27.9662 185.568 28.174C185.36 28.3777 185.2 28.624 185.098 28.8963C184.997 29.156 184.928 29.4528 184.908 29.8868C184.888 30.3228 184.883 30.4615 184.883 31.5697C184.883 32.6782 184.888 32.8169 184.908 33.2521C184.927 33.6861 184.997 33.9829 185.098 34.2426C185.2 34.515 185.361 34.7617 185.568 34.9657C185.772 35.1734 186.019 35.3337 186.291 35.4361C186.55 35.537 186.847 35.606 187.281 35.626C187.717 35.6461 187.856 35.6505 188.964 35.6505C190.073 35.6505 190.211 35.6457 190.646 35.626C191.081 35.6064 191.377 35.537 191.637 35.4361C191.909 35.3337 192.156 35.1732 192.36 34.9657C192.568 34.7619 192.728 34.5153 192.831 34.243C192.931 33.9833 193 33.6865 193.02 33.2525C193.04 32.8165 193.045 32.6778 193.045 31.5697C193.045 30.4611 193.04 30.3224 193.02 29.8876C193.001 29.4528 192.931 29.156 192.831 28.8963C192.728 28.624 192.567 28.3774 192.36 28.1736C192.156 27.966 191.91 27.8054 191.637 27.7028C191.378 27.6023 191.081 27.5333 190.647 27.5133H190.646ZM187.315 28.2478C187.745 28.2282 187.874 28.2241 188.964 28.2241C190.054 28.2241 190.183 28.2282 190.613 28.2478C191.011 28.266 191.227 28.3324 191.371 28.3884C191.561 28.4626 191.697 28.5505 191.84 28.6934C191.976 28.8251 192.08 28.9854 192.145 29.1627C192.201 29.3066 192.268 29.5225 192.286 29.9206C192.306 30.351 192.31 30.4801 192.31 31.5697C192.31 32.6592 192.306 32.7884 192.286 33.2187C192.268 33.6168 192.201 33.8327 192.145 33.9766C192.08 34.1536 191.976 34.3142 191.84 34.4459C191.709 34.5813 191.548 34.6856 191.371 34.7509C191.227 34.8069 191.011 34.8733 190.613 34.8915C190.183 34.9112 190.054 34.9152 188.964 34.9152C187.874 34.9152 187.745 34.9112 187.315 34.8915C186.917 34.8733 186.701 34.8069 186.557 34.7509C186.367 34.6767 186.231 34.5888 186.088 34.4459C185.952 34.3142 185.848 34.1536 185.783 33.9766C185.727 33.8327 185.66 33.6168 185.642 33.2187C185.623 32.7884 185.618 32.6592 185.618 31.5697C185.618 30.4801 185.623 30.351 185.642 29.9206C185.66 29.5225 185.727 29.3066 185.783 29.1627C185.857 28.9724 185.945 28.8362 186.088 28.6934C186.219 28.558 186.38 28.4538 186.557 28.3884C186.701 28.3324 186.917 28.266 187.315 28.2478V28.2478ZM189.485 32.8277C189.194 32.9489 188.87 32.9652 188.568 32.8739C188.266 32.7827 188.006 32.5895 187.83 32.3273C187.655 32.0651 187.577 31.7503 187.608 31.4365C187.639 31.1227 187.778 30.8295 188.001 30.6069C188.144 30.4647 188.316 30.3557 188.505 30.2879C188.695 30.2202 188.897 30.1953 189.097 30.215C189.298 30.2348 189.491 30.2987 189.664 30.4022C189.836 30.5057 189.984 30.6462 190.096 30.8135C190.208 30.9809 190.281 31.1709 190.311 31.37C190.34 31.5691 190.325 31.7723 190.267 31.9649C190.208 32.1576 190.108 32.3349 189.973 32.484C189.838 32.6332 189.671 32.7506 189.485 32.8277ZM190.447 30.0864C190.252 29.8917 190.021 29.7372 189.767 29.6317C189.512 29.5263 189.239 29.4721 188.964 29.4721C188.689 29.4721 188.416 29.5263 188.161 29.6317C187.907 29.7372 187.676 29.8917 187.481 30.0864C187.286 30.2812 187.132 30.5125 187.026 30.7669C186.921 31.0214 186.866 31.2942 186.866 31.5697C186.866 31.8451 186.921 32.1179 187.026 32.3724C187.132 32.6269 187.286 32.8581 187.481 33.0529C187.874 33.4462 188.408 33.6672 188.964 33.6672C189.52 33.6672 190.054 33.4462 190.447 33.0529C190.841 32.6595 191.062 32.126 191.062 31.5697C191.062 31.0133 190.841 30.4798 190.447 30.0864V30.0864ZM186.401 29.7845C186.353 29.7389 186.314 29.6842 186.288 29.6234C186.261 29.5627 186.247 29.4972 186.246 29.4309C186.245 29.3645 186.257 29.2987 186.282 29.2372C186.307 29.1757 186.344 29.1198 186.391 29.0729C186.438 29.026 186.494 28.989 186.555 28.964C186.617 28.9391 186.682 28.9267 186.749 28.9277C186.815 28.9286 186.881 28.9429 186.941 28.9696C187.002 28.9964 187.057 29.035 187.102 29.0833C187.191 29.1772 187.239 29.3018 187.238 29.4309C187.236 29.5599 187.184 29.6831 187.092 29.7744C187.001 29.8656 186.878 29.9177 186.749 29.9196C186.62 29.9215 186.495 29.873 186.401 29.7845V29.7845Z" fill="white"/>
<path d="M197.711 36.0698V26.9901H205.499V36.0698H203.006V29.1641H200.205V36.0698H197.711ZM210.26 36.1977C209.663 36.1977 209.135 36.1039 208.674 35.9164C208.214 35.7288 207.826 35.473 207.51 35.1491C207.204 34.8166 206.969 34.4414 206.807 34.0237C206.654 33.6059 206.577 33.1669 206.577 32.7065C206.577 32.2461 206.654 31.807 206.807 31.3893C206.969 30.963 207.204 30.5879 207.51 30.2639C207.826 29.94 208.214 29.6842 208.674 29.4966C209.135 29.3091 209.663 29.2153 210.26 29.2153C210.865 29.2153 211.394 29.3091 211.846 29.4966C212.306 29.6842 212.69 29.94 212.997 30.2639C213.312 30.5879 213.547 30.963 213.7 31.3893C213.862 31.807 213.943 32.2461 213.943 32.7065C213.943 33.1669 213.862 33.6059 213.7 34.0237C213.547 34.4414 213.312 34.8166 212.997 35.1491C212.69 35.473 212.306 35.7288 211.846 35.9164C211.394 36.1039 210.865 36.1977 210.26 36.1977ZM209.071 32.7065C209.071 33.0049 209.122 33.2649 209.224 33.4866C209.326 33.6997 209.467 33.866 209.646 33.9853C209.825 34.0962 210.03 34.1516 210.26 34.1516C210.49 34.1516 210.695 34.0962 210.874 33.9853C211.053 33.866 211.194 33.6997 211.296 33.4866C211.398 33.2649 211.449 33.0049 211.449 32.7065C211.449 32.4081 211.398 32.1523 211.296 31.9392C211.194 31.7175 211.053 31.5513 210.874 31.4404C210.695 31.3211 210.49 31.2614 210.26 31.2614C210.03 31.2614 209.825 31.3211 209.646 31.4404C209.467 31.5513 209.326 31.7175 209.224 31.9392C209.122 32.1523 209.071 32.4081 209.071 32.7065ZM218.128 36.1977C217.531 36.1977 217.003 36.1039 216.542 35.9164C216.09 35.7288 215.707 35.473 215.391 35.1491C215.076 34.8166 214.837 34.4414 214.675 34.0237C214.513 33.6059 214.432 33.1669 214.432 32.7065C214.432 32.0927 214.573 31.5214 214.854 30.9929C215.144 30.4557 215.562 30.0252 216.108 29.7012C216.662 29.3773 217.335 29.2153 218.128 29.2153C218.938 29.2153 219.62 29.3858 220.174 29.7268C220.728 30.0678 221.142 30.5069 221.415 31.044L219.049 31.7602C218.938 31.5982 218.802 31.4746 218.64 31.3893C218.486 31.304 218.311 31.2614 218.115 31.2614C217.894 31.2614 217.693 31.3211 217.514 31.4404C217.335 31.5513 217.19 31.7133 217.079 31.9264C216.977 32.1395 216.926 32.3996 216.926 32.7065C216.926 33.0049 216.977 33.2649 217.079 33.4866C217.19 33.6997 217.335 33.866 217.514 33.9853C217.693 34.0962 217.894 34.1516 218.115 34.1516C218.252 34.1516 218.375 34.1345 218.486 34.1004C218.597 34.0578 218.699 33.9981 218.793 33.9214C218.895 33.8447 218.981 33.7551 219.049 33.6528L221.415 34.369C221.236 34.727 220.988 35.0425 220.673 35.3153C220.366 35.5881 219.999 35.8055 219.573 35.9675C219.155 36.121 218.674 36.1977 218.128 36.1977ZM223.655 36.0698V31.4532H221.736V29.3432H228.003V31.4532H226.084V36.0698H223.655ZM228.778 36.0698V29.3432H231.208V31.2358H232.18C233.007 31.2358 233.647 31.4532 234.098 31.888C234.55 32.3143 234.776 32.8813 234.776 33.5889C234.776 34.0834 234.682 34.5182 234.495 34.8933C234.307 35.2684 234.03 35.5583 233.664 35.7629C233.306 35.9675 232.862 36.0698 232.334 36.0698H228.778ZM231.208 34.2411H231.924C232.061 34.2411 232.176 34.2155 232.27 34.1644C232.363 34.1132 232.432 34.0407 232.474 33.947C232.525 33.8447 232.551 33.7253 232.551 33.5889C232.551 33.4525 232.525 33.3374 232.474 33.2436C232.432 33.1498 232.363 33.0774 232.27 33.0262C232.176 32.9665 232.061 32.9367 231.924 32.9367H231.208V34.2411ZM235.723 36.0698V29.3432H238.152V36.0698H235.723Z" fill="#081024"/>
<ellipse cx="186.488" cy="46.5168" rx="3.42637" ry="3.43377" fill="#EEEEEE"/>
<ellipse cx="196.24" cy="46.5168" rx="3.42637" ry="3.43377" fill="#EEEEEE"/>
<ellipse cx="205.992" cy="46.5168" rx="3.42637" ry="3.43377" fill="#EEEEEE"/>
<ellipse cx="215.744" cy="46.5168" rx="3.42637" ry="3.43377" fill="#EEEEEE"/>
<ellipse cx="225.498" cy="46.5168" rx="3.42637" ry="3.43377" fill="#EEEEEE"/>
<ellipse cx="235.248" cy="46.5168" rx="3.42637" ry="3.43377" fill="#EEEEEE"/>
<rect x="183.325" y="53.9121" width="24.7753" height="19.0178" rx="1.9355" fill="#EBEBEB"/>
<path d="M188.398 66.666V60.8379H189.999V66.666H188.398ZM195.411 66.666V63.596L194.434 65.7549H193.581L192.604 63.596V66.666H191.003V60.8379H192.752L194.008 63.5796L195.272 60.8379H197.012V66.666H195.411ZM200.529 66.7071C200.152 66.7071 199.791 66.6414 199.446 66.5101C199.107 66.3732 198.806 66.1762 198.543 65.919C198.28 65.6564 198.072 65.3417 197.919 64.9751C197.771 64.6029 197.697 64.1788 197.697 63.7027C197.697 63.2923 197.774 62.912 197.927 62.5617C198.081 62.2115 198.291 61.905 198.559 61.6424C198.833 61.3742 199.15 61.1663 199.512 61.0185C199.873 60.8708 200.264 60.7969 200.685 60.7969C201.211 60.7969 201.687 60.9118 202.114 61.1417C202.541 61.366 202.858 61.6752 203.066 62.0692L201.876 62.9804C201.761 62.7505 201.588 62.5672 201.359 62.4304C201.129 62.2881 200.885 62.217 200.628 62.217C200.436 62.217 200.261 62.2553 200.103 62.3319C199.944 62.4085 199.804 62.5152 199.684 62.652C199.569 62.7888 199.479 62.953 199.413 63.1445C199.353 63.3306 199.323 63.5358 199.323 63.7602C199.323 63.99 199.356 64.198 199.421 64.384C199.487 64.5701 199.577 64.7315 199.692 64.8683C199.813 64.9997 199.955 65.1037 200.119 65.1803C200.283 65.2514 200.467 65.287 200.669 65.287C200.926 65.287 201.172 65.224 201.408 65.0982C201.643 64.9668 201.856 64.7835 202.048 64.5482V66.1078C201.61 66.5073 201.104 66.7071 200.529 66.7071ZM201.966 64.7124H200.891V63.5632H203.288V66.666H201.966V64.7124Z" fill="#6B6B6B"/>
<rect x="214.162" y="53.9136" width="24.7753" height="19.0178" rx="1.9355" fill="#EBEBEB"/>
<path d="M219.234 66.6675V60.8394H220.835V66.6675H219.234ZM226.247 66.6675V63.5975L225.27 65.7563H224.417L223.44 63.5975V66.6675H221.839V60.8394H223.588L224.844 63.5811L226.108 60.8394H227.848V66.6675H226.247ZM231.365 66.7085C230.988 66.7085 230.627 66.6429 230.282 66.5115C229.943 66.3747 229.642 66.1777 229.379 65.9205C229.116 65.6578 228.908 65.3432 228.755 64.9765C228.607 64.6044 228.533 64.1803 228.533 63.7042C228.533 63.2938 228.61 62.9134 228.763 62.5632C228.916 62.213 229.127 61.9065 229.395 61.6438C229.669 61.3757 229.986 61.1677 230.348 61.02C230.709 60.8722 231.1 60.7984 231.521 60.7984C232.047 60.7984 232.523 60.9133 232.95 61.1431C233.376 61.3675 233.694 61.6767 233.902 62.0707L232.712 62.9818C232.597 62.752 232.424 62.5687 232.194 62.4319C231.965 62.2896 231.721 62.2184 231.464 62.2184C231.272 62.2184 231.097 62.2567 230.939 62.3334C230.78 62.41 230.64 62.5167 230.52 62.6535C230.405 62.7903 230.315 62.9545 230.249 63.146C230.189 63.3321 230.159 63.5373 230.159 63.7616C230.159 63.9915 230.192 64.1994 230.257 64.3855C230.323 64.5716 230.413 64.733 230.528 64.8698C230.649 65.0011 230.791 65.1051 230.955 65.1817C231.119 65.2529 231.302 65.2884 231.505 65.2884C231.762 65.2884 232.008 65.2255 232.244 65.0996C232.479 64.9683 232.692 64.785 232.884 64.5497V66.1093C232.446 66.5088 231.94 66.7085 231.365 66.7085ZM232.802 64.7138H231.727V63.5646H234.123V66.6675H232.802V64.7138Z" fill="#6B6B6B"/>
<rect x="132.234" y="82.312" width="112.501" height="51.0693" rx="2.83133" fill="white"/>
<path d="M154.964 92.2558C154.873 91.9202 154.696 91.6143 154.45 91.3684C154.205 91.1226 153.899 90.9454 153.563 90.8546C152.334 90.5195 147.39 90.5195 147.39 90.5195C147.39 90.5195 142.445 90.5297 141.216 90.8648C140.88 90.9556 140.574 91.1328 140.329 91.3786C140.083 91.6245 139.906 91.9304 139.815 92.2661C139.443 94.4491 139.299 97.7755 139.825 99.8712C139.916 100.207 140.093 100.513 140.339 100.759C140.585 101.004 140.891 101.182 141.226 101.272C142.455 101.608 147.4 101.608 147.4 101.608C147.4 101.608 152.345 101.608 153.573 101.272C153.909 101.182 154.215 101.004 154.461 100.759C154.706 100.513 154.884 100.207 154.974 99.8712C155.366 97.6851 155.487 94.3608 154.964 92.2559V92.2558Z" fill="#FF0000"/>
<path d="M145.816 98.439L149.919 96.063L145.816 93.687V98.439Z" fill="white"/>
<path d="M158.704 101.064V91.3102H167.071V101.064H164.392V93.6456H161.383V101.064H158.704ZM173.49 101.201C172.968 101.201 172.514 101.101 172.13 100.899C171.745 100.688 171.447 100.386 171.237 99.9924V103.99H168.627V93.8379H170.893V94.9232C171.15 94.5294 171.466 94.2272 171.841 94.0165C172.226 93.8059 172.688 93.7006 173.229 93.7006C173.714 93.7006 174.158 93.7922 174.561 93.9753C174.964 94.1585 175.317 94.4195 175.619 94.7584C175.921 95.0972 176.155 95.491 176.32 95.9398C176.485 96.3886 176.567 96.8831 176.567 97.4235C176.567 98.147 176.434 98.7927 176.169 99.3605C175.903 99.9283 175.537 100.377 175.07 100.707C174.612 101.036 174.085 101.201 173.49 101.201ZM172.583 99.0033C172.775 99.0033 172.949 98.9621 173.105 98.8797C173.27 98.7972 173.412 98.6828 173.531 98.5362C173.65 98.3897 173.742 98.2203 173.806 98.0279C173.87 97.8356 173.902 97.6295 173.902 97.4097C173.902 97.1808 173.865 96.9747 173.792 96.7915C173.728 96.6084 173.632 96.4527 173.503 96.3245C173.375 96.1871 173.224 96.0818 173.05 96.0085C172.876 95.9352 172.684 95.8986 172.473 95.8986C172.354 95.8986 172.235 95.9169 172.116 95.9535C172.006 95.981 171.901 96.0268 171.8 96.0909C171.699 96.1459 171.598 96.2191 171.498 96.3107C171.406 96.4023 171.319 96.5122 171.237 96.6404V97.8906C171.319 98.1012 171.429 98.2935 171.566 98.4675C171.713 98.6324 171.873 98.7652 172.047 98.8659C172.221 98.9575 172.4 99.0033 172.583 99.0033ZM181.079 101.201C180.438 101.201 179.87 101.101 179.376 100.899C178.881 100.698 178.465 100.423 178.126 100.075C177.796 99.7177 177.544 99.3147 177.37 98.8659C177.205 98.4172 177.123 97.9455 177.123 97.451C177.123 96.9564 177.205 96.4847 177.37 96.036C177.544 95.578 177.796 95.1751 178.126 94.8271C178.465 94.479 178.881 94.2043 179.376 94.0028C179.87 93.8013 180.438 93.7006 181.079 93.7006C181.73 93.7006 182.297 93.8013 182.783 94.0028C183.277 94.2043 183.689 94.479 184.019 94.8271C184.358 95.1751 184.61 95.578 184.775 96.036C184.949 96.4847 185.036 96.9564 185.036 97.451C185.036 97.9455 184.949 98.4172 184.775 98.8659C184.61 99.3147 184.358 99.7177 184.019 100.075C183.689 100.423 183.277 100.698 182.783 100.899C182.297 101.101 181.73 101.201 181.079 101.201ZM179.802 97.451C179.802 97.7715 179.857 98.0508 179.967 98.289C180.076 98.5179 180.228 98.6965 180.42 98.8247C180.612 98.9438 180.832 99.0033 181.079 99.0033C181.327 99.0033 181.546 98.9438 181.739 98.8247C181.931 98.6965 182.082 98.5179 182.192 98.289C182.302 98.0508 182.357 97.7715 182.357 97.451C182.357 97.1304 182.302 96.8557 182.192 96.6267C182.082 96.3886 181.931 96.21 181.739 96.0909C181.546 95.9627 181.327 95.8986 181.079 95.8986C180.832 95.8986 180.612 95.9627 180.42 96.0909C180.228 96.21 180.076 96.3886 179.967 96.6267C179.857 96.8557 179.802 97.1304 179.802 97.451ZM189.531 101.201C188.89 101.201 188.323 101.101 187.828 100.899C187.343 100.698 186.93 100.423 186.592 100.075C186.253 99.7177 185.996 99.3147 185.822 98.8659C185.648 98.4172 185.561 97.9455 185.561 97.451C185.561 96.7915 185.712 96.1779 186.015 95.6101C186.326 95.0331 186.775 94.5706 187.361 94.2226C187.956 93.8746 188.68 93.7006 189.531 93.7006C190.402 93.7006 191.134 93.8837 191.729 94.2501C192.325 94.6164 192.769 95.0881 193.062 95.6651L190.521 96.4344C190.402 96.2604 190.255 96.1276 190.081 96.036C189.916 95.9444 189.728 95.8986 189.518 95.8986C189.28 95.8986 189.064 95.9627 188.872 96.0909C188.68 96.21 188.524 96.384 188.405 96.613C188.295 96.8419 188.24 97.1212 188.24 97.451C188.24 97.7715 188.295 98.0508 188.405 98.289C188.524 98.5179 188.68 98.6965 188.872 98.8247C189.064 98.9438 189.28 99.0033 189.518 99.0033C189.664 99.0033 189.797 98.985 189.916 98.9484C190.035 98.9026 190.145 98.8385 190.246 98.756C190.356 98.6736 190.447 98.5774 190.521 98.4675L193.062 99.2369C192.87 99.6215 192.604 99.9604 192.265 100.253C191.936 100.547 191.542 100.78 191.084 100.954C190.635 101.119 190.118 101.201 189.531 101.201ZM193.916 101.064V93.8379H196.65L198.408 97.3411L200.18 93.8379H202.9V101.064H200.427V97.3411L199.219 99.8001H197.598L196.389 97.3411V101.064H193.916ZM207.803 101.201C207.162 101.201 206.594 101.101 206.1 100.899C205.605 100.698 205.189 100.423 204.85 100.075C204.52 99.7177 204.268 99.3147 204.094 98.8659C203.929 98.4172 203.847 97.9455 203.847 97.451C203.847 96.9564 203.929 96.4847 204.094 96.036C204.268 95.578 204.52 95.1751 204.85 94.8271C205.189 94.479 205.605 94.2043 206.1 94.0028C206.594 93.8013 207.162 93.7006 207.803 93.7006C208.454 93.7006 209.021 93.8013 209.507 94.0028C210.001 94.2043 210.414 94.479 210.743 94.8271C211.082 95.1751 211.334 95.578 211.499 96.036C211.673 96.4847 211.76 96.9564 211.76 97.451C211.76 97.9455 211.673 98.4172 211.499 98.8659C211.334 99.3147 211.082 99.7177 210.743 100.075C210.414 100.423 210.001 100.698 209.507 100.899C209.021 101.101 208.454 101.201 207.803 101.201ZM206.526 97.451C206.526 97.7715 206.581 98.0508 206.691 98.289C206.8 98.5179 206.952 98.6965 207.144 98.8247C207.336 98.9438 207.556 99.0033 207.803 99.0033C208.051 99.0033 208.27 98.9438 208.463 98.8247C208.655 98.6965 208.806 98.5179 208.916 98.289C209.026 98.0508 209.081 97.7715 209.081 97.451C209.081 97.1304 209.026 96.8557 208.916 96.6267C208.806 96.3886 208.655 96.21 208.463 96.0909C208.27 95.9627 208.051 95.8986 207.803 95.8986C207.556 95.8986 207.336 95.9627 207.144 96.0909C206.952 96.21 206.8 96.3886 206.691 96.6267C206.581 96.8557 206.526 97.1304 206.526 97.451ZM214.264 101.064V96.1047H212.203V93.8379H218.934V96.1047H216.874V101.064H214.264ZM224.604 101.201C224.082 101.201 223.628 101.101 223.244 100.899C222.859 100.688 222.561 100.386 222.351 99.9924V103.99H219.74V93.8379H222.007V94.9232C222.264 94.5294 222.58 94.2272 222.955 94.0165C223.34 93.8059 223.802 93.7006 224.343 93.7006C224.828 93.7006 225.272 93.7922 225.675 93.9753C226.078 94.1585 226.431 94.4195 226.733 94.7584C227.035 95.0972 227.269 95.491 227.434 95.9398C227.598 96.3886 227.681 96.8831 227.681 97.4235C227.681 98.147 227.548 98.7927 227.282 99.3605C227.017 99.9283 226.65 100.377 226.183 100.707C225.725 101.036 225.199 101.201 224.604 101.201ZM223.697 99.0033C223.889 99.0033 224.063 98.9621 224.219 98.8797C224.384 98.7972 224.526 98.6828 224.645 98.5362C224.764 98.3897 224.855 98.2203 224.92 98.0279C224.984 97.8356 225.016 97.6295 225.016 97.4097C225.016 97.1808 224.979 96.9747 224.906 96.7915C224.842 96.6084 224.746 96.4527 224.617 96.3245C224.489 96.1871 224.338 96.0818 224.164 96.0085C223.99 95.9352 223.798 95.8986 223.587 95.8986C223.468 95.8986 223.349 95.9169 223.23 95.9535C223.12 95.981 223.015 96.0268 222.914 96.0909C222.813 96.1459 222.712 96.2191 222.612 96.3107C222.52 96.4023 222.433 96.5122 222.351 96.6404V97.8906C222.433 98.1012 222.543 98.2935 222.68 98.4675C222.827 98.6324 222.987 98.7652 223.161 98.8659C223.335 98.9575 223.514 99.0033 223.697 99.0033Z" fill="#081024"/>
<rect x="139.029" y="106.999" width="22.3675" height="14.471" rx="2.83133" fill="#EBEBEB"/>
<rect x="164.512" y="106.999" width="22.3675" height="14.471" rx="2.83133" fill="#EBEBEB"/>
<path d="M173.288 116.821L177.84 114.179L173.288 111.537V116.821Z" fill="white"/>
<path d="M147.807 116.821L152.358 114.179L147.807 111.537V116.821Z" fill="white"/>
<rect x="189.993" y="106.999" width="22.3675" height="14.471" rx="2.83133" fill="#EBEBEB"/>
<rect x="215.476" y="106.999" width="22.3675" height="14.471" rx="2.83133" fill="#EBEBEB"/>
<rect x="215.476" y="106.999" width="22.3675" height="14.471" rx="2.83133" fill="#EBEBEB"/>
<path d="M198.487 116.821L203.039 114.179L198.487 111.537V116.821Z" fill="white"/>
<path d="M224.253 116.821L228.804 114.179L224.253 111.537V116.821Z" fill="white"/>
<line x1="139.029" y1="125.3" x2="161.397" y2="125.3" stroke="#EBEBEB" stroke-width="0.849398"/>
<line x1="215.758" y1="125.3" x2="238.125" y2="125.3" stroke="#EBEBEB" stroke-width="0.849398"/>
<line x1="139.029" y1="128.138" x2="161.397" y2="128.138" stroke="#EBEBEB" stroke-width="0.849398"/>
<line x1="164.512" y1="128.138" x2="186.879" y2="128.138" stroke="#EBEBEB" stroke-width="0.849398"/>
<line x1="164.512" y1="125.3" x2="212.361" y2="125.3" stroke="#EBEBEB" stroke-width="0.849398"/>
<line x1="189.993" y1="128.138" x2="237.843" y2="128.138" stroke="#EBEBEB" stroke-width="0.849398"/>
<rect x="17.0957" y="81.8462" width="109.708" height="51.9848" rx="2.98119" fill="white"/>
<rect x="22.7012" y="88.5718" width="13.1172" height="13.1172" rx="2.54146" fill="#249ADC"/>
<path d="M32.3563 91.4807L25.3204 94.3892C25.0918 94.4685 25.1172 94.8122 25.3458 94.8915L27.1238 95.4732L27.8351 97.8C27.8859 97.9851 28.1145 98.0379 28.2415 97.9057L29.2829 96.901L31.2641 98.4081C31.4165 98.5139 31.6197 98.4345 31.6705 98.2495L33.0422 92.1153C33.1184 91.6658 32.7373 91.3221 32.3563 91.4807V91.4807ZM28.2415 95.9227L28.0129 97.2976L27.5049 95.3939L32.4579 92.0095L28.2415 95.9227Z" fill="white"/>
<path d="M39.3128 100.63V90.3604H48.1218V100.63H45.3012V92.8194H42.1334V100.63H39.3128ZM53.5065 100.775C52.8411 100.775 52.248 100.674 51.7273 100.471C51.2066 100.259 50.7678 99.9746 50.411 99.6178C50.0638 99.261 49.7986 98.8512 49.6154 98.3883C49.4322 97.9255 49.3406 97.4385 49.3406 96.9274C49.3406 96.1945 49.4997 95.5243 49.8179 94.9168C50.1362 94.2996 50.6039 93.8078 51.221 93.4414C51.8382 93.0653 52.6 92.8772 53.5065 92.8772C54.4129 92.8772 55.1747 93.0605 55.7919 93.4269C56.4091 93.7933 56.8768 94.2755 57.195 94.8734C57.5132 95.4713 57.6723 96.1222 57.6723 96.8261C57.6723 96.9708 57.6627 97.1202 57.6434 97.2745C57.6338 97.4192 57.6193 97.5494 57.6 97.6651H52.2625C52.2818 97.9351 52.3541 98.1569 52.4795 98.3305C52.6145 98.4944 52.7784 98.6149 52.9713 98.6921C53.1738 98.7692 53.3811 98.8078 53.5932 98.8078C53.8922 98.8078 54.1718 98.7403 54.4322 98.6053C54.7022 98.4703 54.8806 98.2823 54.9674 98.0412L57.2962 98.7066C57.0937 99.1116 56.8093 99.4684 56.4428 99.7769C56.086 100.086 55.6617 100.331 55.1699 100.515C54.6781 100.688 54.1236 100.775 53.5065 100.775ZM52.2046 96.0161H54.7215C54.6926 95.7654 54.6203 95.5532 54.5045 95.3796C54.3985 95.2061 54.2538 95.0711 54.0706 94.9746C53.897 94.8782 53.6945 94.83 53.4631 94.83C53.2316 94.83 53.0243 94.8782 52.8411 94.9746C52.6675 95.0711 52.5229 95.2061 52.4071 95.3796C52.3011 95.5532 52.2336 95.7654 52.2046 96.0161ZM63.6951 100.775C63.1454 100.775 62.6681 100.669 62.2631 100.457C61.8581 100.235 61.5447 99.9168 61.3229 99.5021V103.711H58.5746V93.0219H60.9613V94.1646C61.2313 93.7499 61.564 93.4317 61.9593 93.2099C62.3643 92.9881 62.8513 92.8772 63.4203 92.8772C63.9314 92.8772 64.3991 92.9737 64.8234 93.1665C65.2477 93.3594 65.6189 93.6342 65.9372 93.991C66.2554 94.3478 66.5013 94.7625 66.6749 95.235C66.8484 95.7075 66.9352 96.2282 66.9352 96.7972C66.9352 97.559 66.7954 98.2389 66.5157 98.8367C66.2361 99.4346 65.8504 99.9071 65.3586 100.254C64.8764 100.601 64.3219 100.775 63.6951 100.775ZM62.7404 98.4607C62.9429 98.4607 63.1262 98.4173 63.2901 98.3305C63.4637 98.2437 63.6131 98.1231 63.7385 97.9688C63.8639 97.8146 63.9603 97.6362 64.0278 97.4336C64.0953 97.2311 64.1291 97.0142 64.1291 96.7827C64.1291 96.5417 64.0905 96.3247 64.0133 96.1318C63.9458 95.939 63.8446 95.775 63.7096 95.64C63.5746 95.4954 63.4155 95.3845 63.2322 95.3073C63.049 95.2302 62.8465 95.1916 62.6247 95.1916C62.4994 95.1916 62.374 95.2109 62.2486 95.2495C62.1329 95.2784 62.022 95.3266 61.9159 95.3941C61.8099 95.452 61.7038 95.5291 61.5977 95.6255C61.5013 95.722 61.4097 95.8377 61.3229 95.9727V97.289C61.4097 97.5108 61.5254 97.7133 61.67 97.8965C61.8243 98.0701 61.9931 98.2099 62.1763 98.316C62.3595 98.4124 62.5476 98.4607 62.7404 98.4607ZM71.6863 100.775C71.021 100.775 70.4279 100.674 69.9072 100.471C69.3864 100.259 68.9477 99.9746 68.5909 99.6178C68.2437 99.261 67.9785 98.8512 67.7953 98.3883C67.6121 97.9255 67.5205 97.4385 67.5205 96.9274C67.5205 96.1945 67.6796 95.5243 67.9978 94.9168C68.316 94.2996 68.7837 93.8078 69.4009 93.4414C70.0181 93.0653 70.7799 92.8772 71.6863 92.8772C72.5928 92.8772 73.3546 93.0605 73.9718 93.4269C74.589 93.7933 75.0566 94.2755 75.3749 94.8734C75.6931 95.4713 75.8522 96.1222 75.8522 96.8261C75.8522 96.9708 75.8426 97.1202 75.8233 97.2745C75.8136 97.4192 75.7992 97.5494 75.7799 97.6651H70.4424C70.4617 97.9351 70.534 98.1569 70.6593 98.3305C70.7944 98.4944 70.9583 98.6149 71.1512 98.6921C71.3537 98.7692 71.561 98.8078 71.7731 98.8078C72.0721 98.8078 72.3517 98.7403 72.6121 98.6053C72.8821 98.4703 73.0605 98.2823 73.1473 98.0412L75.4761 98.7066C75.2736 99.1116 74.9891 99.4684 74.6227 99.7769C74.2659 100.086 73.8416 100.331 73.3498 100.515C72.858 100.688 72.3035 100.775 71.6863 100.775ZM70.3845 96.0161H72.9014C72.8725 95.7654 72.8001 95.5532 72.6844 95.3796C72.5783 95.2061 72.4337 95.0711 72.2505 94.9746C72.0769 94.8782 71.8744 94.83 71.643 94.83C71.4115 94.83 71.2042 94.8782 71.021 94.9746C70.8474 95.0711 70.7027 95.2061 70.587 95.3796C70.4809 95.5532 70.4134 95.7654 70.3845 96.0161ZM76.7834 100.63V93.0219H84.2328V100.63H81.4844V95.4086H79.5317V100.63H76.7834ZM85.6826 100.63V93.0219H88.4309V96.9708L90.8321 93.0219H93.3345V100.63H90.5862V96.8117L88.1995 100.63H85.6826ZM98.5116 100.775C97.8365 100.775 97.2387 100.669 96.7179 100.457C96.2068 100.245 95.7729 99.9553 95.4161 99.5889C95.0593 99.2128 94.7893 98.7885 94.6061 98.316C94.4228 97.8435 94.3312 97.3469 94.3312 96.8261C94.3312 96.1318 94.4903 95.4857 94.8086 94.8878C95.1364 94.2803 95.609 93.7933 96.2261 93.4269C96.8529 93.0605 97.6147 92.8772 98.5116 92.8772C99.4277 92.8772 100.199 93.0701 100.826 93.4558C101.453 93.8416 101.92 94.3382 102.229 94.9457L99.553 95.7557C99.4277 95.5725 99.2734 95.4327 99.0901 95.3363C98.9166 95.2398 98.7189 95.1916 98.4971 95.1916C98.2464 95.1916 98.0198 95.2591 97.8172 95.3941C97.6147 95.5195 97.4508 95.7027 97.3254 95.9438C97.2097 96.1849 97.1519 96.479 97.1519 96.8261C97.1519 97.1636 97.2097 97.4578 97.3254 97.7085C97.4508 97.9496 97.6147 98.1376 97.8172 98.2726C98.0198 98.398 98.2464 98.4607 98.4971 98.4607C98.6514 98.4607 98.7912 98.4414 98.9166 98.4028C99.0419 98.3546 99.1577 98.2871 99.2637 98.2003C99.3794 98.1135 99.4759 98.0122 99.553 97.8965L102.229 98.7066C102.027 99.1116 101.747 99.4684 101.39 99.7769C101.043 100.086 100.628 100.331 100.146 100.515C99.6736 100.688 99.1287 100.775 98.5116 100.775ZM103.128 100.63V93.0219H105.862V95.5822H106.296L107.959 93.0219H110.881L108.364 96.667L111.127 100.63H108.003L106.223 97.9399H105.862V100.63H103.128ZM112.267 100.63V93.0219H115.016V96.9708L117.417 93.0219H119.919V100.63H117.171V96.8117L114.784 100.63H112.267Z" fill="#081024"/>
<path d="M30.5106 112.47C30.5106 113.552 28.1256 115.458 30.6596 116.055C29.9947 116.673 27.7627 116.204 26.7841 116.204C24.726 116.204 23.0576 114.532 23.0576 112.47C23.0576 110.407 24.726 108.735 26.7841 108.735C28.8422 108.735 30.5106 110.407 30.5106 112.47Z" fill="#3E69DC"/>
<rect x="32.8936" y="108.735" width="36.0724" height="7.76785" rx="1.49059" fill="#E6E6E6"/>
<line x1="35.2793" y1="110.977" x2="55.5514" y2="110.977" stroke="#CACACA" stroke-width="0.298119"/>
<line x1="35.2793" y1="112.471" x2="66.5818" y2="112.471" stroke="#CACACA" stroke-width="0.298119"/>
<line x1="35.2793" y1="113.964" x2="66.5818" y2="113.964" stroke="#CACACA" stroke-width="0.298119"/>
<path d="M30.5106 124.72C30.5106 125.802 28.1256 127.708 30.6596 128.305C29.9947 128.923 27.7627 128.454 26.7841 128.454C24.726 128.454 23.0576 126.782 23.0576 124.72C23.0576 122.657 24.726 120.985 26.7841 120.985C28.8422 120.985 30.5106 122.657 30.5106 124.72Z" fill="#FFC700"/>
<rect x="32.8936" y="120.985" width="36.0724" height="7.76785" rx="1.49059" fill="#E6E6E6"/>
<line x1="35.2793" y1="123.225" x2="55.5514" y2="123.225" stroke="#CACACA" stroke-width="0.298119"/>
<line x1="35.2793" y1="124.72" x2="66.5818" y2="124.72" stroke="#CACACA" stroke-width="0.298119"/>
<line x1="35.2793" y1="126.213" x2="66.5818" y2="126.213" stroke="#CACACA" stroke-width="0.298119"/>
<path d="M82.0838 112.469C82.0838 113.551 79.6989 115.457 82.2329 116.054C81.568 116.672 79.3359 116.203 78.3573 116.203C76.2993 116.203 74.6309 114.531 74.6309 112.469C74.6309 110.406 76.2993 108.734 78.3573 108.734C80.4154 108.734 82.0838 110.406 82.0838 112.469Z" fill="#FF4F64"/>
<rect x="84.4697" y="108.734" width="36.0724" height="7.76785" rx="1.49059" fill="#E6E6E6"/>
<line x1="86.8545" y1="110.976" x2="107.127" y2="110.976" stroke="#CACACA" stroke-width="0.298119"/>
<line x1="86.8545" y1="112.47" x2="118.157" y2="112.47" stroke="#CACACA" stroke-width="0.298119"/>
<line x1="86.8545" y1="113.963" x2="118.157" y2="113.963" stroke="#CACACA" stroke-width="0.298119"/>
<path d="M82.0848 124.719C82.0848 125.801 79.6999 127.707 82.2339 128.304C81.5689 128.922 79.3369 128.453 78.3583 128.453C76.3002 128.453 74.6318 126.781 74.6318 124.719C74.6318 122.656 76.3002 120.984 78.3583 120.984C80.4164 120.984 82.0848 122.656 82.0848 124.719Z" fill="#48C95F"/>
<rect x="84.4707" y="120.984" width="36.0724" height="7.76785" rx="1.49059" fill="#E6E6E6"/>
<line x1="86.8555" y1="123.225" x2="107.128" y2="123.225" stroke="#CACACA" stroke-width="0.298119"/>
<line x1="86.8555" y1="124.719" x2="118.158" y2="124.719" stroke="#CACACA" stroke-width="0.298119"/>
<line x1="86.8555" y1="126.212" x2="118.158" y2="126.212" stroke="#CACACA" stroke-width="0.298119"/>
</svg>
