<svg xmlns="http://www.w3.org/2000/svg" width="120" height="120" fill="none"><rect width="120" height="120" fill="#fff" rx="18"/><path fill="url(#a)" d="M24.512 38.984h12.736l13.204 41.48H38.884l-2.512-8.12H25.33l-2.454 8.12H11.25l13.262-41.48Zm10.049 25.764-3.68-14.606-3.857 14.606h7.537Z"/><path fill="url(#b)" d="M42.485 80.554v-41.48h11.392v25.238l15.307-25.238h10.633v41.48H68.425V55.315L53.293 80.554H42.485Z"/><path fill="url(#c)" d="M91.88 80.815c-3.855 0-7.322-.74-10.399-2.22-3.038-1.52-5.453-3.623-7.244-6.31l8.53-5.317c.895 1.364 2.083 2.454 3.563 3.272 1.52.779 3.272 1.169 5.258 1.169 2.065 0 3.506-.351 4.324-1.052.818-.74 1.227-1.655 1.227-2.746 0-.779-.176-1.441-.526-1.986-.35-.546-.935-.974-1.753-1.286-.818-.311-1.908-.467-3.272-.467h-5.783v-8.53h5.783c1.13 0 2.026-.117 2.688-.35.701-.273 1.188-.643 1.46-1.11.312-.507.468-1.091.468-1.753 0-.662-.156-1.227-.467-1.694-.312-.507-.838-.896-1.578-1.169-.74-.273-1.753-.409-3.038-.409-2.259 0-4.148.39-5.667 1.169-1.48.779-2.61 1.772-3.388 2.98l-8.18-5.843a22.873 22.873 0 0 1 7.011-6.076c2.765-1.558 6.33-2.337 10.691-2.337 3.311 0 6.115.428 8.413 1.285 2.337.857 4.129 2.143 5.375 3.856 1.247 1.714 1.87 3.856 1.87 6.427 0 1.714-.409 3.388-1.227 5.024-.818 1.636-2.259 2.921-4.323 3.856 2.259.701 3.992 1.909 5.199 3.622 1.208 1.675 1.811 3.661 1.811 5.96 0 2.648-.74 4.868-2.22 6.66-1.48 1.791-3.486 3.135-6.017 4.03-2.532.897-5.395 1.345-8.588 1.345Z"/><defs><linearGradient id="a" x1="36.4" x2="52.603" y1="45.566" y2="27.313" gradientUnits="userSpaceOnUse"><stop stop-color="#F7526F"/><stop offset="1" stop-color="#FF3B3B"/></linearGradient><linearGradient id="b" x1="11.25" x2="19.577" y1="42.45" y2="30.994" gradientUnits="userSpaceOnUse"><stop stop-color="#FFA842"/><stop offset="1" stop-color="#FFC700"/></linearGradient><linearGradient id="c" x1="84.018" x2="103.393" y1="41.621" y2="85.298" gradientUnits="userSpaceOnUse"><stop stop-color="#62E278"/><stop offset="1" stop-color="#2CCC89"/></linearGradient></defs></svg>