<svg xmlns="http://www.w3.org/2000/svg" width="260" height="220" fill="none"><path fill="#DBDBDB" d="M160.803 175.906H99.049v44.093h61.754v-44.093Z"/><path fill="#EBEBEB" d="M164.517 214.431H95.334V220h69.183v-5.569Z"/><path fill="#E6E6E6" d="M250.642 180.78H9.358c-5.16 0-9.358-4.211-9.358-9.388v-29.135h260v29.135c0 5.177-4.198 9.388-9.358 9.388Z"/><path fill="#3F3D56" d="M260 154.557H0V6.443C0 2.89 2.884 0 6.428 0h247.144C257.116 0 260 2.89 260 6.443v148.114Z"/><path fill="#B7C9F8" d="M254.444 6.73H6.036v139.705h248.408V6.73Z"/><rect width="83.517" height="57.318" x="17.096" y="19.839" fill="#fff" rx="2.636"/><path fill="#081024" d="M25.304 28.808a.577.577 0 0 0 0 1.154h8.08a.577.577 0 1 0 0-1.154h-8.08Zm0 2.309a.577.577 0 0 0-.577.577v2.309a.578.578 0 0 0 .577.577h2.309a.577.577 0 0 0 .577-.577v-2.31a.577.577 0 0 0-.577-.576h-2.31Zm.577 2.308v-1.154h1.154v1.154h-1.154Zm4.04-2.308a.578.578 0 0 0 0 1.154h3.464a.578.578 0 0 0 0-1.154h-3.463Zm0 2.308a.577.577 0 1 0 0 1.155h3.464a.578.578 0 0 0 0-1.155h-3.463Zm-7.503-5.771a2.308 2.308 0 0 1 2.309-2.31h9.235a2.309 2.309 0 0 1 2.309 2.31 2.309 2.309 0 0 1 2.308 2.308v5.195a2.886 2.886 0 0 1-2.886 2.886h-10.39a2.886 2.886 0 0 1-2.885-2.886v-7.503Zm13.275 7.503a.577.577 0 0 1-.577-.577v-6.926a1.154 1.154 0 0 0-1.154-1.155h-9.235a1.154 1.154 0 0 0-1.155 1.155v7.503a1.731 1.731 0 0 0 1.732 1.732h10.39a1.731 1.731 0 0 0 1.731-1.732v-5.195a1.154 1.154 0 0 0-1.154-1.154v5.772a.577.577 0 0 1-.578.577Zm13.751-8.043v9.08h-2.493v-3.555h-3.044v3.555h-2.493v-9.08h2.493v3.35h3.044v-3.35h2.493Zm4.594 9.208c-.596 0-1.125-.094-1.585-.282a3.378 3.378 0 0 1-1.164-.767 3.523 3.523 0 0 1-.704-1.125 3.788 3.788 0 0 1-.23-1.318c0-.46.077-.899.23-1.317a3.35 3.35 0 0 1 .704-1.125 3.38 3.38 0 0 1 1.163-.767c.46-.188.99-.282 1.586-.282.606 0 1.134.094 1.586.282.46.187.844.443 1.151.767a3.1 3.1 0 0 1 .703 1.125c.162.418.243.857.243 1.317 0 .46-.08.9-.243 1.318a3.25 3.25 0 0 1-.703 1.125c-.307.324-.69.58-1.151.767-.452.188-.98.282-1.586.282Zm-1.19-3.492c0 .299.052.559.154.78.103.214.243.38.422.5.18.11.384.166.614.166.23 0 .435-.056.614-.167.18-.119.32-.285.422-.498.102-.222.154-.482.154-.78a1.76 1.76 0 0 0-.154-.768 1.116 1.116 0 0 0-.422-.499 1.08 1.08 0 0 0-.614-.179c-.23 0-.434.06-.614.18-.179.11-.32.277-.422.498a1.76 1.76 0 0 0-.153.767Zm5.759 3.364v-6.727h4.067c.537 0 .963.077 1.279.23.315.145.54.341.677.589.145.238.218.503.218.792 0 .393-.086.725-.256.998-.162.273-.426.49-.793.652.392.111.716.29.972.537.256.248.384.606.384 1.075 0 .468-.111.84-.333 1.112-.213.273-.529.465-.946.576-.418.11-.925.166-1.522.166h-3.747Zm2.302-1.611h1.368a.544.544 0 0 0 .269-.064.435.435 0 0 0 .192-.18.495.495 0 0 0 .076-.28.495.495 0 0 0-.076-.282.434.434 0 0 0-.192-.18.544.544 0 0 0-.269-.063H60.91v1.049Zm0-2.52h1.164A.545.545 0 0 0 62.34 32a.376.376 0 0 0 .166-.179.543.543 0 0 0 .064-.268.444.444 0 0 0-.14-.346.484.484 0 0 0-.358-.128h-1.164v.985Zm8.565 4.259c-.597 0-1.125-.094-1.586-.282a3.378 3.378 0 0 1-1.163-.767 3.524 3.524 0 0 1-.704-1.125 3.79 3.79 0 0 1-.23-1.318c0-.46.077-.899.23-1.317a3.35 3.35 0 0 1 .704-1.125 3.38 3.38 0 0 1 1.163-.767c.46-.188.99-.282 1.586-.282.605 0 1.134.094 1.586.282a3.229 3.229 0 0 1 1.854 1.892c.162.418.243.857.243 1.317 0 .46-.08.9-.243 1.318a3.25 3.25 0 0 1-.703 1.125c-.307.324-.69.58-1.151.767-.452.188-.98.282-1.586.282Zm-1.19-3.492c0 .299.052.559.154.78.103.214.243.38.422.5.18.11.384.166.614.166.23 0 .435-.056.614-.167a1.21 1.21 0 0 0 .422-.498c.102-.222.153-.482.153-.78a1.76 1.76 0 0 0-.153-.768 1.116 1.116 0 0 0-.422-.499 1.08 1.08 0 0 0-.614-.179c-.23 0-.435.06-.614.18-.179.11-.32.277-.422.498a1.76 1.76 0 0 0-.153.767Zm9.058 3.492c-.596 0-1.125-.094-1.585-.282a3.406 3.406 0 0 1-1.151-.767 3.416 3.416 0 0 1-.717-1.125 3.613 3.613 0 0 1-.242-1.318c0-.613.14-1.184.421-1.713.29-.537.708-.968 1.254-1.292.554-.324 1.227-.486 2.02-.486.81 0 1.492.17 2.046.512.555.34.968.78 1.24 1.317l-2.365.716a1.131 1.131 0 0 0-.41-.37 1.062 1.062 0 0 0-.523-.129c-.222 0-.422.06-.602.18-.179.11-.323.272-.434.485a1.793 1.793 0 0 0-.154.78c0 .299.051.559.154.78.11.214.255.38.434.5.18.11.38.166.602.166.136 0 .26-.018.37-.052.111-.042.213-.102.307-.179a1.09 1.09 0 0 0 .256-.268l2.366.716a3.042 3.042 0 0 1-.742.946c-.307.273-.673.49-1.1.653-.417.153-.9.23-1.445.23Zm5.527-.128v-4.617H80.95v-2.11h6.266v2.11h-1.918v4.617h-2.43Zm5.124 0v-6.727h2.43v3.491l2.122-3.49h2.213v6.726h-2.43v-3.376l-2.11 3.376h-2.225Z"/><rect width="34.645" height="29.613" x="22.418" y="43.065" fill="#EBEBEB" rx="1.935"/><rect width="34.645" height="7.355" x="60.645" y="43.065" fill="#EBEBEB" rx="1.935"/><rect width="34.645" height="18.774" x="60.645" y="53.903" fill="#EBEBEB" rx="1.935"/><path stroke="#C5C5C5" stroke-width=".677" d="M24.257 51.049h15.484"/><rect width="30.968" height="11.806" x="62.483" y="57.388" fill="#D9D9D9" rx="2.636"/><path fill="#6B6B6B" d="M72.416 65.71v-4.392h1.206v4.393h-1.206Zm5.287 0v-2.313l-.737 1.627h-.643l-.737-1.627v2.314H74.38v-4.393h1.318l.947 2.066.952-2.066h1.312v4.393h-1.206Zm3.858.032c-.285 0-.557-.05-.817-.149a2.072 2.072 0 0 1-.68-.445 2.185 2.185 0 0 1-.47-.712c-.112-.28-.168-.6-.168-.959 0-.31.058-.596.173-.86a2.188 2.188 0 0 1 1.195-1.163 2.3 2.3 0 0 1 .884-.167c.397 0 .755.086 1.077.26.322.169.561.402.718.699l-.897.687a.992.992 0 0 0-.39-.415 1.029 1.029 0 0 0-.55-.16.9.9 0 0 0-.397.086.993.993 0 0 0-.316.241 1.15 1.15 0 0 0-.204.371c-.045.14-.068.295-.068.464 0 .174.025.33.075.47.049.141.117.263.204.366.09.099.198.177.321.235.124.054.262.08.415.08.194 0 .38-.047.557-.142.177-.099.338-.237.483-.414v1.175c-.33.301-.712.452-1.145.452Zm1.083-1.504h-.81v-.866h1.806v2.339h-.996v-1.473Z"/><path stroke="#C5C5C5" stroke-width=".677" d="M24.257 48.63h12.097m-12.097-2.42h12.097m-12.097 7.258h24.194m-24.194 2.419h30.968m-30.968 2.42h30.968m-30.968 2.419h30.968m-30.968 2.42h30.968m-30.968 2.42h30.968m-30.968 2.418h30.968m-30.968 2.42h30.968"/><rect width="64.574" height="57.318" x="106.782" y="19.839" fill="#fff" rx="2.636"/><rect width="10.228" height="10.228" x="112.104" y="27.504" fill="#fff" rx="2.557"/><path fill="#07F" d="M119.994 25.658h-3.706c-3.382 0-4.184.801-4.184 4.183v3.706c0 3.382.802 4.184 4.184 4.184h3.706c3.382 0 4.183-.802 4.183-4.184v-3.706c0-3.382-.809-4.183-4.183-4.183Zm1.857 8.612h-.877c-.332 0-.434-.263-1.031-.869-.519-.502-.749-.57-.876-.57-.181 0-.232.052-.232.3v.791c0 .213-.067.34-.629.34-.93 0-1.961-.562-2.685-1.609-1.09-1.535-1.389-2.684-1.389-2.922 0-.128.051-.247.297-.247h.878c.222 0 .307.102.393.34.434 1.253 1.158 2.351 1.456 2.351.11 0 .161-.05.161-.332V30.55c-.033-.598-.348-.649-.348-.861a.21.21 0 0 1 .22-.204h1.381c.187 0 .256.102.256.322v1.746c0 .19.084.256.135.256.11 0 .205-.067.409-.271.631-.708 1.083-1.798 1.083-1.798a.386.386 0 0 1 .383-.248h.878c.264 0 .322.136.264.324-.111.511-1.185 2.028-1.185 2.028-.093.153-.128.22 0 .39.094.129.401.394.605.632.375.426.664.784.741 1.031.086.246-.042.373-.289.373h.001Z"/><path fill="#081024" d="M132.667 36.194V29.29h-1.765l-.051 1.227c-.051 1.16-.162 2.115-.333 2.865-.162.742-.405 1.326-.729 1.752a2.66 2.66 0 0 1-1.253.895c-.503.17-1.113.256-1.829.256v-2.149c.29 0 .537-.05.742-.153.213-.11.388-.316.524-.614.145-.307.256-.746.333-1.317.085-.58.145-1.339.179-2.276l.102-2.66h6.573v9.08h-2.493Zm7.2.128c-.588 0-1.112-.09-1.573-.268a3.474 3.474 0 0 1-1.163-.755 3.27 3.27 0 0 1-.704-1.087 3.477 3.477 0 0 1-.243-1.292c0-.647.141-1.24.422-1.777a3.21 3.21 0 0 1 1.241-1.305c.545-.332 1.219-.498 2.02-.498.802 0 1.475.162 2.021.486.546.324.959.75 1.24 1.279a3.61 3.61 0 0 1 .397 2.122 3.71 3.71 0 0 1-.039.346h-4.718c.017.238.081.434.191.588.12.145.265.252.435.32a1.59 1.59 0 0 0 1.292-.077c.239-.12.396-.286.473-.499l2.059.588a2.964 2.964 0 0 1-.755.947c-.315.273-.69.49-1.125.652a4.4 4.4 0 0 1-1.471.23Zm-1.151-4.207h2.226a1.268 1.268 0 0 0-.192-.563.973.973 0 0 0-.384-.358 1.085 1.085 0 0 0-.537-.128c-.205 0-.388.043-.55.128a1.11 1.11 0 0 0-.384.358 1.386 1.386 0 0 0-.179.563Zm5.658 4.08v-6.727h2.429v2.289h1.791v-2.29h2.43v6.727h-2.43V33.74h-1.791v2.455h-2.429Zm9.375 0v-4.617h-1.918v-2.11h6.266v2.11h-1.918v4.616h-2.43Zm4.677-2.034c0-.452.124-.848.371-1.19a2.47 2.47 0 0 1 1.023-.818 3.699 3.699 0 0 1 1.509-.294c.265 0 .512.021.742.064.239.043.443.107.614.192v-.205c0-.315-.094-.55-.281-.703-.179-.154-.474-.23-.883-.23-.375 0-.729.064-1.061.192a4.921 4.921 0 0 0-1.023.537l-.704-1.51c.452-.29.925-.502 1.42-.639a5.795 5.795 0 0 1 1.611-.217c1.066 0 1.889.243 2.468.729.589.477.883 1.189.883 2.135v1.305c0 .23.034.392.102.486.068.085.188.136.358.153v2.046a4.76 4.76 0 0 1-.563.09c-.17.025-.323.038-.46.038-.435 0-.767-.077-.997-.23-.222-.162-.367-.396-.435-.703l-.051-.243a3.175 3.175 0 0 1-1.036.882c-.392.196-.81.294-1.253.294-.444 0-.844-.094-1.203-.281a2.166 2.166 0 0 1-.844-.767 2.086 2.086 0 0 1-.307-1.113Zm3.939.166c.094-.068.171-.14.23-.217a.44.44 0 0 0 .09-.256v-.499a2.892 2.892 0 0 0-.473-.128 2.376 2.376 0 0 0-.461-.05c-.289 0-.537.072-.741.217-.196.145-.294.328-.294.55 0 .119.034.23.102.332a.76.76 0 0 0 .281.23c.12.051.256.077.409.077a1.52 1.52 0 0 0 .857-.256Z"/><rect width="53.504" height="7.38" x="112.154" y="43.065" fill="#EBEBEB" rx="1.935"/><rect width="53.504" height="18.713" x="112.104" y="54.081" fill="#EBEBEB" rx="1.935"/><path stroke="#D9D9D9" stroke-width=".791" d="M134.821 57.956h26.093m-26.093 2.373h26.093m-26.093 2.108h26.093m-26.093 2.109h26.093m-26.093 2.108h26.093m-26.093 2.109h26.093"/><rect width="17.132" height="11.597" x="115.054" y="57.562" fill="#D9D9D9" rx="2.636"/><path fill="#6B6B6B" d="M118.043 65.67v-4.394h1.206v4.394h-1.206Zm5.287 0v-2.314l-.737 1.627h-.643l-.737-1.627v2.314h-1.206v-4.394h1.318l.946 2.067.953-2.067h1.312v4.394h-1.206Zm3.858.03c-.285 0-.557-.049-.817-.148a2.071 2.071 0 0 1-.681-.445 2.192 2.192 0 0 1-.47-.712 2.59 2.59 0 0 1-.167-.959 2.13 2.13 0 0 1 .65-1.553c.206-.202.445-.359.718-.47a2.3 2.3 0 0 1 .884-.167c.396 0 .755.086 1.077.26.322.169.561.402.718.699l-.897.687a.996.996 0 0 0-.39-.415 1.029 1.029 0 0 0-.551-.16.902.902 0 0 0-.396.086.993.993 0 0 0-.316.241 1.173 1.173 0 0 0-.204.371c-.045.14-.068.295-.068.464 0 .174.025.33.074.47.05.14.118.263.205.366.09.099.198.177.321.235.124.053.262.08.415.08.194 0 .38-.047.557-.142.177-.099.338-.237.483-.415v1.176c-.33.301-.712.452-1.145.452Zm1.083-1.503h-.811v-.866h1.807v2.339h-.996v-1.473Z"/><rect width="67.21" height="57.318" x="177.526" y="19.839" fill="#fff" rx="2.636"/><rect width="11.872" height="11.872" fill="#C61FCA" rx="2.597" transform="matrix(-1 0 0 1 194.9 25.634)"/><path fill="#fff" fill-rule="evenodd" d="M190.646 27.513c-.435-.02-.573-.024-1.682-.024-1.108 0-1.247.005-1.682.024-.435.02-.732.09-.991.19a2.008 2.008 0 0 0-.723.471c-.208.204-.368.45-.47.722-.101.26-.17.557-.19.99-.02.437-.025.576-.025 1.684s.005 1.247.025 1.682c.019.434.089.73.19.99a2 2 0 0 0 .47.724c.204.207.451.368.723.47.259.101.556.17.99.19.436.02.575.025 1.683.025 1.109 0 1.247-.005 1.682-.025a2.99 2.99 0 0 0 .991-.19c.272-.102.519-.263.723-.47.208-.204.368-.45.471-.723.1-.26.169-.556.189-.99.02-.437.025-.575.025-1.683 0-1.109-.005-1.248-.025-1.682a3.002 3.002 0 0 0-.189-.992 2.015 2.015 0 0 0-.471-.722 1.998 1.998 0 0 0-.723-.471c-.259-.1-.556-.17-.99-.19h-.001Zm-3.331.735c.43-.02.559-.024 1.649-.024 1.09 0 1.219.004 1.649.024.398.018.614.084.758.14.19.075.326.162.469.305.136.132.24.292.305.47.056.144.123.36.141.758.02.43.024.56.024 1.649 0 1.09-.004 1.218-.024 1.649-.018.398-.085.614-.141.758a1.256 1.256 0 0 1-.305.469 1.26 1.26 0 0 1-.469.305c-.144.056-.36.122-.758.14-.43.02-.559.024-1.649.024-1.09 0-1.219-.004-1.649-.023-.398-.019-.614-.085-.758-.141a1.27 1.27 0 0 1-.469-.305 1.256 1.256 0 0 1-.305-.47c-.056-.143-.123-.36-.141-.757-.019-.43-.024-.56-.024-1.65 0-1.089.005-1.218.024-1.648.018-.398.085-.614.141-.758a1.27 1.27 0 0 1 .305-.47c.131-.135.292-.24.469-.305.144-.056.36-.122.758-.14Zm2.17 4.58a1.36 1.36 0 1 1-.98-2.54 1.365 1.365 0 0 1 1.806 1.082 1.37 1.37 0 0 1-.826 1.458Zm.962-2.742a2.106 2.106 0 0 0-1.483-.614 2.103 2.103 0 0 0-1.483.614 2.105 2.105 0 0 0-.615 1.484 2.106 2.106 0 0 0 .615 1.483 2.097 2.097 0 1 0 2.966-2.967Zm-4.046-.301a.488.488 0 0 1-.155-.354.494.494 0 0 1 .856-.348.494.494 0 0 1-.353.836.497.497 0 0 1-.348-.134Z" clip-rule="evenodd"/><path fill="#081024" d="M197.711 36.07v-9.08h7.788v9.08h-2.493v-6.906h-2.801v6.906h-2.494Zm12.549.128c-.597 0-1.125-.094-1.586-.282a3.39 3.39 0 0 1-1.164-.767 3.54 3.54 0 0 1-.703-1.125 3.8 3.8 0 0 1-.23-1.318c0-.46.077-.899.23-1.317.162-.426.397-.801.703-1.125a3.39 3.39 0 0 1 1.164-.767c.461-.188.989-.282 1.586-.282.605 0 1.134.094 1.586.282.46.187.844.443 1.151.767a3.1 3.1 0 0 1 .703 1.125c.162.418.243.857.243 1.317 0 .46-.081.9-.243 1.318a3.25 3.25 0 0 1-.703 1.125c-.307.324-.691.58-1.151.767-.452.188-.981.282-1.586.282Zm-1.189-3.492c0 .299.051.559.153.78.102.214.243.38.422.5.179.11.384.166.614.166.23 0 .435-.056.614-.167a1.21 1.21 0 0 0 .422-.498 1.85 1.85 0 0 0 .153-.78c0-.299-.051-.555-.153-.768a1.114 1.114 0 0 0-.422-.499 1.082 1.082 0 0 0-.614-.179c-.23 0-.435.06-.614.18-.179.11-.32.277-.422.498a1.764 1.764 0 0 0-.153.767Zm9.057 3.492c-.597 0-1.125-.094-1.586-.282a3.412 3.412 0 0 1-1.151-.767 3.425 3.425 0 0 1-.716-1.125 3.611 3.611 0 0 1-.243-1.318c0-.613.141-1.185.422-1.713.29-.537.708-.968 1.254-1.292.554-.324 1.227-.486 2.02-.486.81 0 1.492.17 2.046.512.554.34.968.78 1.241 1.317l-2.366.716a1.132 1.132 0 0 0-.409-.37 1.065 1.065 0 0 0-.525-.129c-.221 0-.422.06-.601.18-.179.11-.324.272-.435.485a1.797 1.797 0 0 0-.153.78c0 .299.051.559.153.78.111.214.256.38.435.5.179.11.38.166.601.166.137 0 .26-.017.371-.052.111-.042.213-.102.307-.179.102-.076.188-.166.256-.268l2.366.716a3.05 3.05 0 0 1-.742.946c-.307.273-.674.49-1.1.653-.418.153-.899.23-1.445.23Zm5.527-.128v-4.617h-1.919v-2.11h6.267v2.11h-1.919v4.617h-2.429Zm5.123 0v-6.727h2.43v1.893h.972c.827 0 1.467.217 1.918.652.452.426.678.993.678 1.7 0 .495-.094.93-.281 1.305a2.003 2.003 0 0 1-.831.87c-.358.205-.802.307-1.33.307h-3.556Zm2.43-1.829h.716a.715.715 0 0 0 .346-.077.46.46 0 0 0 .204-.217.793.793 0 0 0 .077-.358.715.715 0 0 0-.077-.345.459.459 0 0 0-.204-.218.632.632 0 0 0-.346-.09h-.716v1.305Zm4.515 1.829v-6.727h2.429v6.727h-2.429Z"/><ellipse cx="186.488" cy="46.517" fill="#EEE" rx="3.426" ry="3.434"/><ellipse cx="196.24" cy="46.517" fill="#EEE" rx="3.426" ry="3.434"/><ellipse cx="205.992" cy="46.517" fill="#EEE" rx="3.426" ry="3.434"/><ellipse cx="215.744" cy="46.517" fill="#EEE" rx="3.426" ry="3.434"/><ellipse cx="225.498" cy="46.517" fill="#EEE" rx="3.426" ry="3.434"/><ellipse cx="235.248" cy="46.517" fill="#EEE" rx="3.426" ry="3.434"/><rect width="24.775" height="19.018" x="183.325" y="53.912" fill="#EBEBEB" rx="1.935"/><path fill="#6B6B6B" d="M188.398 66.666v-5.828h1.601v5.828h-1.601Zm7.013 0v-3.07l-.977 2.159h-.853l-.977-2.159v3.07h-1.601v-5.828h1.749l1.256 2.742 1.264-2.742h1.74v5.828h-1.601Zm5.118.041a3.02 3.02 0 0 1-1.083-.197 2.756 2.756 0 0 1-.903-.591 2.89 2.89 0 0 1-.624-.944 3.422 3.422 0 0 1-.222-1.272c0-.41.077-.791.23-1.141a2.916 2.916 0 0 1 1.585-1.543 3.068 3.068 0 0 1 1.173-.222c.526 0 1.002.115 1.429.345.427.224.744.533.952.927l-1.19.911a1.32 1.32 0 0 0-.517-.55 1.368 1.368 0 0 0-.731-.213c-.192 0-.367.038-.525.115a1.31 1.31 0 0 0-.419.32 1.531 1.531 0 0 0-.271.492c-.06.187-.09.392-.09.616 0 .23.033.438.098.624.066.186.156.347.271.484.121.132.263.236.427.312.164.071.348.107.55.107.257 0 .503-.063.739-.189a2.24 2.24 0 0 0 .64-.55v1.56c-.438.4-.944.6-1.519.6Zm1.437-1.995h-1.075v-1.149h2.397v3.103h-1.322v-1.954Z"/><rect width="24.775" height="19.018" x="214.162" y="53.914" fill="#EBEBEB" rx="1.935"/><path fill="#6B6B6B" d="M219.234 66.668v-5.829h1.601v5.829h-1.601Zm7.013 0v-3.07l-.977 2.158h-.853l-.977-2.159v3.07h-1.601V60.84h1.749l1.256 2.742 1.264-2.742h1.74v5.829h-1.601Zm5.118.04c-.377 0-.738-.065-1.083-.197a2.754 2.754 0 0 1-.903-.59 2.89 2.89 0 0 1-.624-.945 3.421 3.421 0 0 1-.222-1.272c0-.41.077-.79.23-1.14a2.902 2.902 0 0 1 1.585-1.544 3.066 3.066 0 0 1 1.173-.222c.526 0 1.002.115 1.429.345.426.224.744.534.952.928l-1.19.91a1.317 1.317 0 0 0-.518-.55 1.362 1.362 0 0 0-.73-.213c-.192 0-.367.039-.525.115a1.31 1.31 0 0 0-.419.32 1.531 1.531 0 0 0-.271.493c-.06.186-.09.391-.09.616 0 .23.033.437.098.623.066.187.156.348.271.485.121.131.263.235.427.312.164.07.347.106.55.106.257 0 .503-.063.739-.188.235-.132.448-.315.64-.55v1.56a2.188 2.188 0 0 1-1.519.599Zm1.437-1.994h-1.075v-1.15h2.396v3.104h-1.321v-1.954Z"/><rect width="112.501" height="51.069" x="132.234" y="82.312" fill="#fff" rx="2.831"/><path fill="red" d="M154.964 92.256a1.991 1.991 0 0 0-1.401-1.401c-1.229-.336-6.173-.336-6.173-.336s-4.945.01-6.174.346a1.982 1.982 0 0 0-1.401 1.401c-.372 2.183-.516 5.51.01 7.605a1.992 1.992 0 0 0 1.401 1.401c1.229.336 6.174.336 6.174.336s4.945 0 6.173-.336a1.99 1.99 0 0 0 1.401-1.4c.392-2.187.513-5.511-.01-7.616Z"/><path fill="#fff" d="m145.816 98.439 4.103-2.376-4.103-2.376v4.752Z"/><path fill="#081024" d="M158.704 101.064V91.31h8.367v9.754h-2.679v-7.418h-3.009v7.418h-2.679Zm14.786.137c-.522 0-.976-.1-1.36-.302a2.182 2.182 0 0 1-.893-.907v3.998h-2.61V93.838h2.266v1.085a2.72 2.72 0 0 1 .948-.907c.385-.21.847-.315 1.388-.315.485 0 .929.091 1.332.274.403.184.756.445 1.058.783.302.34.536.733.701 1.182.165.449.247.943.247 1.484 0 .723-.133 1.369-.398 1.936a3.345 3.345 0 0 1-1.099 1.347 2.64 2.64 0 0 1-1.58.494Zm-.907-2.198a1.1 1.1 0 0 0 .522-.123c.165-.083.307-.197.426-.344.119-.146.211-.316.275-.508.064-.192.096-.399.096-.618 0-.23-.037-.435-.11-.618a1.21 1.21 0 0 0-.289-.468 1.304 1.304 0 0 0-.453-.316 1.47 1.47 0 0 0-.577-.11c-.119 0-.238.019-.357.056a1.06 1.06 0 0 0-.316.137 1.544 1.544 0 0 0-.302.22 1.931 1.931 0 0 0-.261.33v1.25c.082.21.192.402.329.576.147.165.307.298.481.399.174.091.353.137.536.137Zm8.496 2.198c-.641 0-1.209-.1-1.703-.302a3.619 3.619 0 0 1-1.25-.824 3.783 3.783 0 0 1-.756-1.21 4.067 4.067 0 0 1-.247-1.414c0-.495.082-.966.247-1.415.174-.458.426-.86.756-1.209a3.625 3.625 0 0 1 1.25-.824c.494-.202 1.062-.302 1.703-.302.651 0 1.218.1 1.704.302.494.201.906.476 1.236.824.339.348.591.751.756 1.209.174.449.261.92.261 1.415s-.087.966-.261 1.415a3.494 3.494 0 0 1-.756 1.209c-.33.348-.742.623-1.236.824-.486.202-1.053.302-1.704.302Zm-1.277-3.75c0 .32.055.6.165.838.109.229.261.407.453.536.192.119.412.178.659.178.248 0 .467-.06.66-.178.192-.129.343-.307.453-.536a1.98 1.98 0 0 0 .165-.838c0-.32-.055-.595-.165-.824a1.201 1.201 0 0 0-1.113-.728 1.16 1.16 0 0 0-.659.192 1.195 1.195 0 0 0-.453.536c-.11.229-.165.503-.165.824Zm9.729 3.75c-.641 0-1.208-.1-1.703-.302a3.645 3.645 0 0 1-1.236-.824 3.672 3.672 0 0 1-.77-1.21 3.88 3.88 0 0 1-.261-1.414c0-.66.151-1.273.454-1.84.311-.578.76-1.04 1.346-1.388.595-.348 1.319-.522 2.17-.522.871 0 1.603.183 2.198.55.596.365 1.04.837 1.333 1.414l-2.541.77a1.216 1.216 0 0 0-.44-.399 1.141 1.141 0 0 0-.563-.137 1.14 1.14 0 0 0-.646.192 1.302 1.302 0 0 0-.467.522c-.11.229-.165.508-.165.838 0 .32.055.6.165.838.119.229.275.407.467.536.192.119.408.178.646.178.146 0 .279-.018.398-.055a1.2 1.2 0 0 0 .33-.192c.11-.082.201-.179.275-.288l2.541.769a3.256 3.256 0 0 1-.797 1.016 3.748 3.748 0 0 1-1.181.701c-.449.165-.966.247-1.553.247Zm4.385-.137v-7.226h2.734l1.758 3.503 1.772-3.503h2.72v7.226h-2.473v-3.723l-1.208 2.46h-1.621l-1.209-2.46v3.723h-2.473Zm13.887.137c-.641 0-1.209-.1-1.703-.302a3.619 3.619 0 0 1-1.25-.824 3.783 3.783 0 0 1-.756-1.21 4.067 4.067 0 0 1-.247-1.414c0-.495.082-.966.247-1.415.174-.458.426-.86.756-1.209a3.625 3.625 0 0 1 1.25-.824c.494-.202 1.062-.302 1.703-.302.651 0 1.218.1 1.704.302.494.201.907.476 1.236.824.339.348.591.751.756 1.209.174.449.261.92.261 1.415s-.087.966-.261 1.415a3.494 3.494 0 0 1-.756 1.209 3.477 3.477 0 0 1-1.236.824c-.486.202-1.053.302-1.704.302Zm-1.277-3.75c0 .32.055.6.165.838.109.229.261.407.453.536.192.119.412.178.659.178.248 0 .467-.06.66-.178.192-.129.343-.307.453-.536a1.98 1.98 0 0 0 .165-.838c0-.32-.055-.595-.165-.824a1.201 1.201 0 0 0-1.113-.728 1.16 1.16 0 0 0-.659.192 1.195 1.195 0 0 0-.453.536c-.11.229-.165.503-.165.824Zm7.738 3.613v-4.96h-2.061v-2.266h6.731v2.267h-2.06v4.959h-2.61Zm10.34.137c-.522 0-.976-.1-1.36-.302a2.182 2.182 0 0 1-.893-.907v3.998h-2.611V93.838h2.267v1.085a2.72 2.72 0 0 1 .948-.907c.385-.21.847-.315 1.388-.315.485 0 .929.091 1.332.274.403.184.756.445 1.058.783.302.34.536.733.701 1.182.164.449.247.943.247 1.484 0 .723-.133 1.369-.399 1.936a3.337 3.337 0 0 1-1.099 1.347 2.637 2.637 0 0 1-1.579.494Zm-.907-2.198a1.1 1.1 0 0 0 .522-.123c.165-.083.307-.197.426-.344.119-.146.21-.316.275-.508.064-.192.096-.399.096-.618 0-.23-.037-.435-.11-.618a1.21 1.21 0 0 0-.289-.468 1.304 1.304 0 0 0-.453-.316 1.47 1.47 0 0 0-.577-.11c-.119 0-.238.019-.357.056a1.06 1.06 0 0 0-.316.137 1.544 1.544 0 0 0-.302.22 1.931 1.931 0 0 0-.261.33v1.25c.082.21.192.402.329.576.147.165.307.298.481.399.174.091.353.137.536.137Z"/><rect width="22.367" height="14.471" x="139.029" y="106.999" fill="#EBEBEB" rx="2.831"/><rect width="22.367" height="14.471" x="164.512" y="106.999" fill="#EBEBEB" rx="2.831"/><path fill="#fff" d="m173.288 116.821 4.552-2.642-4.552-2.642v5.284Zm-25.481 0 4.551-2.642-4.551-2.642v5.284Z"/><rect width="22.367" height="14.471" x="189.993" y="106.999" fill="#EBEBEB" rx="2.831"/><rect width="22.367" height="14.471" x="215.476" y="106.999" fill="#EBEBEB" rx="2.831"/><rect width="22.367" height="14.471" x="215.476" y="106.999" fill="#EBEBEB" rx="2.831"/><path fill="#fff" d="m198.487 116.821 4.552-2.642-4.552-2.642v5.284Zm25.766 0 4.551-2.642-4.551-2.642v5.284Z"/><path stroke="#EBEBEB" stroke-width=".849" d="M139.029 125.3h22.368m54.361 0h22.367m-99.096 2.838h22.368m3.115 0h22.367m-22.367-2.838h47.849m-22.368 2.838h47.85"/><rect width="109.708" height="51.985" x="17.096" y="81.846" fill="#fff" rx="2.981"/><rect width="13.117" height="13.117" x="22.701" y="88.572" fill="#249ADC" rx="2.541"/><path fill="#fff" d="m32.356 91.48-7.036 2.91c-.228.079-.203.422.026.501l1.778.582.711 2.327c.05.185.28.238.406.106l1.042-1.005 1.981 1.507c.152.106.356.026.407-.159l1.371-6.134c.076-.45-.305-.793-.686-.634Zm-4.115 4.443-.228 1.375-.508-1.904 4.953-3.385-4.216 3.914Z"/><path fill="#081024" d="M39.313 100.63V90.36h8.809v10.27h-2.82v-7.81h-3.169v7.81h-2.82Zm14.194.145c-.666 0-1.259-.101-1.78-.304a3.93 3.93 0 0 1-1.316-.853 3.697 3.697 0 0 1-.796-1.23 3.933 3.933 0 0 1-.274-1.46c0-.733.159-1.404.477-2.011a3.622 3.622 0 0 1 1.403-1.476c.617-.376 1.379-.564 2.286-.564.906 0 1.668.184 2.285.55a3.672 3.672 0 0 1 1.403 1.446 4.092 4.092 0 0 1 .448 2.401 4 4 0 0 1-.043.391h-5.337c.019.27.091.492.217.665.135.164.298.285.491.362a1.796 1.796 0 0 0 1.46-.087c.271-.135.45-.323.536-.564l2.33.666a3.35 3.35 0 0 1-.854 1.07 4.134 4.134 0 0 1-1.273.738 4.992 4.992 0 0 1-1.663.26Zm-1.302-4.759h2.517a1.424 1.424 0 0 0-.218-.636 1.098 1.098 0 0 0-.433-.405 1.231 1.231 0 0 0-.608-.145 1.31 1.31 0 0 0-.622.145 1.245 1.245 0 0 0-.434.405 1.55 1.55 0 0 0-.202.636Zm11.49 4.759c-.55 0-1.027-.106-1.432-.318a2.302 2.302 0 0 1-.94-.955v4.209h-2.748v-10.69h2.386v1.144c.27-.415.603-.733.998-.955.405-.222.892-.333 1.461-.333.511 0 .98.097 1.403.29.425.192.796.467 1.114.824.318.357.564.772.738 1.244.173.472.26.993.26 1.562 0 .762-.14 1.442-.42 2.04-.279.598-.665 1.07-1.156 1.417a2.775 2.775 0 0 1-1.664.521Zm-.955-2.314c.203 0 .386-.044.55-.13.174-.087.323-.208.449-.362.125-.154.221-.333.289-.535.067-.203.101-.42.101-.651 0-.241-.038-.458-.116-.651a1.284 1.284 0 0 0-.303-.492 1.377 1.377 0 0 0-.478-.333 1.551 1.551 0 0 0-.607-.115c-.126 0-.251.019-.376.058a1.125 1.125 0 0 0-.333.144 1.663 1.663 0 0 0-.318.231 2.082 2.082 0 0 0-.275.348v1.316c.087.222.202.424.347.608.154.173.323.313.506.419.183.096.372.145.564.145Zm8.946 2.314c-.665 0-1.258-.101-1.779-.304a3.929 3.929 0 0 1-1.316-.853 3.697 3.697 0 0 1-.796-1.23 3.933 3.933 0 0 1-.275-1.46c0-.733.16-1.404.478-2.011A3.62 3.62 0 0 1 69.4 93.44c.617-.376 1.379-.564 2.285-.564.907 0 1.669.184 2.286.55a3.672 3.672 0 0 1 1.403 1.446 4.092 4.092 0 0 1 .448 2.401c-.01.145-.024.275-.043.391h-5.338c.02.27.092.492.217.665.135.164.3.285.492.362a1.796 1.796 0 0 0 1.46-.087c.271-.135.45-.323.536-.564l2.33.666a3.352 3.352 0 0 1-.854 1.07 4.134 4.134 0 0 1-1.273.738 4.992 4.992 0 0 1-1.664.26Zm-1.302-4.759h2.517a1.425 1.425 0 0 0-.217-.636 1.099 1.099 0 0 0-.433-.405 1.231 1.231 0 0 0-.608-.145 1.31 1.31 0 0 0-.622.145 1.244 1.244 0 0 0-.434.405 1.547 1.547 0 0 0-.203.636Zm6.4 4.614v-7.608h7.449v7.608h-2.749v-5.221h-1.952v5.221h-2.749Zm8.899 0v-7.608h2.748v3.949l2.401-3.95h2.503v7.609h-2.749v-3.818L88.2 100.63h-2.517Zm12.829.145c-.675 0-1.273-.106-1.794-.318a3.851 3.851 0 0 1-1.302-.868 3.865 3.865 0 0 1-.81-1.273 4.083 4.083 0 0 1-.275-1.49c0-.694.16-1.34.478-1.938.327-.608.8-1.095 1.417-1.461.627-.367 1.389-.55 2.286-.55.916 0 1.687.193 2.314.579.627.386 1.094.882 1.403 1.49l-2.676.81a1.278 1.278 0 0 0-.463-.42 1.2 1.2 0 0 0-.593-.144c-.25 0-.477.067-.68.202a1.37 1.37 0 0 0-.492.55c-.115.24-.173.535-.173.882 0 .338.058.632.173.883.126.24.29.429.492.564.203.125.43.188.68.188.154 0 .294-.02.42-.058.125-.048.24-.116.347-.203.115-.087.212-.188.289-.303l2.676.81a3.43 3.43 0 0 1-.839 1.07 3.984 3.984 0 0 1-1.244.738c-.472.173-1.017.26-1.634.26Zm4.616-.145v-7.608h2.734v2.56h.434l1.663-2.56h2.922l-2.517 3.645 2.763 3.963h-3.124l-1.78-2.69h-.361v2.69h-2.734Zm9.139 0v-7.608h2.749v3.949l2.401-3.95h2.502v7.609h-2.748v-3.818l-2.387 3.818h-2.517Z"/><path fill="#3E69DC" d="M30.51 112.47c0 1.082-2.384 2.988.15 3.585-.665.618-2.897.149-3.876.149a3.73 3.73 0 0 1-3.726-3.734 3.73 3.73 0 0 1 3.726-3.735 3.73 3.73 0 0 1 3.727 3.735Z"/><rect width="36.072" height="7.768" x="32.894" y="108.735" fill="#E6E6E6" rx="1.491"/><path stroke="#CACACA" stroke-width=".298" d="M35.279 110.977h20.272m-20.272 1.494h31.303m-31.303 1.493h31.303"/><path fill="#FFC700" d="M30.51 124.72c0 1.082-2.384 2.988.15 3.585-.665.618-2.897.149-3.876.149a3.73 3.73 0 0 1-3.726-3.734 3.73 3.73 0 0 1 3.726-3.735 3.73 3.73 0 0 1 3.727 3.735Z"/><rect width="36.072" height="7.768" x="32.894" y="120.985" fill="#E6E6E6" rx="1.491"/><path stroke="#CACACA" stroke-width=".298" d="M35.279 123.225h20.272m-20.272 1.495h31.303m-31.303 1.493h31.303"/><path fill="#FF4F64" d="M82.084 112.469c0 1.082-2.385 2.988.149 3.585-.665.618-2.897.149-3.876.149a3.73 3.73 0 0 1-3.726-3.734 3.73 3.73 0 0 1 3.726-3.735 3.73 3.73 0 0 1 3.727 3.735Z"/><rect width="36.072" height="7.768" x="84.47" y="108.734" fill="#E6E6E6" rx="1.491"/><path stroke="#CACACA" stroke-width=".298" d="M86.855 110.976h20.272m-20.272 1.494h31.302m-31.302 1.493h31.302"/><path fill="#48C95F" d="M82.085 124.719c0 1.082-2.385 2.988.149 3.585-.665.618-2.897.149-3.876.149a3.73 3.73 0 0 1-3.726-3.734 3.73 3.73 0 0 1 3.726-3.735 3.73 3.73 0 0 1 3.727 3.735Z"/><rect width="36.072" height="7.768" x="84.471" y="120.984" fill="#E6E6E6" rx="1.491"/><path stroke="#CACACA" stroke-width=".298" d="M86.856 123.225h20.272m-20.272 1.494h31.302m-31.302 1.493h31.302"/></svg>